<svg width="17" height="17" viewBox="0 0 17 17" fill="none" xmlns="http://www.w3.org/2000/svg">
<circle cx="8.5" cy="8.5" r="8.5" fill="#EDF0F4"/>
<path d="M5.94024 8.45677C5.91606 8.87684 6.23942 9.23646 6.65949 9.26064C6.6746 9.26064 6.68971 9.26064 6.70482 9.26064C7.12792 9.26064 7.46941 8.91914 7.46639 8.49605C7.46639 8.07296 7.12489 7.73146 6.7018 7.73449C6.29684 7.73449 5.96139 8.05181 5.94024 8.45677Z" fill="#0033AD"/>
<path d="M3.09365 8.26034C2.95766 8.25127 2.83979 8.35705 2.83375 8.49304C2.82771 8.62903 2.93046 8.74689 3.06645 8.75294C3.20244 8.76201 3.31728 8.65623 3.32635 8.52024C3.33542 8.38424 3.22964 8.2694 3.09365 8.26034Z" fill="#0033AD"/>
<path d="M5.89214 4.02639C6.01303 3.96595 6.06138 3.81484 6.00094 3.69396C5.9405 3.57308 5.78939 3.52472 5.66851 3.58516C5.54762 3.64561 5.49927 3.79369 5.55971 3.91457C5.62015 4.03848 5.76824 4.08985 5.89214 4.02639C5.89214 4.02639 5.88912 4.02639 5.89214 4.02639Z" fill="#0033AD"/>
<path d="M6.66569 5.37725C6.85306 5.28357 6.92861 5.05389 6.83492 4.86652C6.74124 4.67915 6.51156 4.6036 6.32419 4.69728C6.13682 4.79097 6.06127 5.02065 6.15495 5.20801C6.24864 5.39538 6.47832 5.47094 6.66569 5.37725Z" fill="#0033AD"/>
<path d="M4.06073 6.30503C4.20579 6.39871 4.3992 6.35943 4.49591 6.21437C4.58959 6.06931 4.55031 5.87589 4.40525 5.77919C4.26019 5.6855 4.06677 5.72479 3.97006 5.86985C3.87336 6.01491 3.91567 6.21134 4.06073 6.30503Z" fill="#0033AD"/>
<path d="M4.52318 8.12433C4.31164 8.11224 4.13334 8.27241 4.12125 8.48396C4.10916 8.6955 4.26933 8.87381 4.48088 8.8859C4.69242 8.89798 4.87072 8.73781 4.88281 8.52627C4.8949 8.31774 4.73473 8.13642 4.52318 8.12433Z" fill="#0033AD"/>
<path d="M4.10297 10.684C3.94884 10.7626 3.88538 10.95 3.96395 11.1071C4.04253 11.2613 4.2299 11.3247 4.38705 11.2462C4.54117 11.1676 4.60464 10.9802 4.52606 10.8231C4.44749 10.6689 4.2571 10.6055 4.10297 10.684Z" fill="#0033AD"/>
<path d="M5.58399 7.33557C5.79251 7.47156 6.07055 7.41414 6.20352 7.20562C6.33951 6.99709 6.28209 6.71906 6.07357 6.58609C5.86504 6.4501 5.58701 6.50752 5.45404 6.71604C5.31805 6.92154 5.37547 7.19957 5.58399 7.33557Z" fill="#0033AD"/>
<path d="M10.2831 5.34705C10.4583 5.46188 10.6971 5.41353 10.8119 5.23825C10.9268 5.06297 10.8784 4.82422 10.7031 4.70938C10.5278 4.59455 10.2891 4.6429 10.1743 4.81818C10.0564 4.99648 10.1048 5.23221 10.2831 5.34705Z" fill="#0033AD"/>
<path d="M11.0632 4.00223C11.178 4.07778 11.3291 4.04454 11.4047 3.9297C11.4802 3.81486 11.447 3.66375 11.3321 3.5882C11.2173 3.51265 11.0662 3.54589 10.9906 3.65771C10.9181 3.77255 10.9513 3.92668 11.0632 4.00223Z" fill="#0033AD"/>
<path d="M10.3408 7.72845C9.92072 7.70427 9.55807 8.02763 9.53692 8.4477C9.51274 8.86777 9.8361 9.23042 10.2562 9.25158C10.2713 9.25158 10.2864 9.25158 10.2985 9.25158C10.7186 9.25158 11.06 8.91008 11.06 8.48699C11.0631 8.08505 10.7458 7.7496 10.3408 7.72845Z" fill="#0033AD"/>
<path d="M6.91676 7.28119C7.04671 7.53807 7.30964 7.70126 7.59976 7.70126C8.01983 7.70126 8.36132 7.35976 8.36132 6.93667C8.36132 6.81881 8.33412 6.70095 8.27973 6.59215C8.08933 6.21439 7.62998 6.06329 7.25524 6.25368C6.87748 6.44709 6.72637 6.90645 6.91676 7.28119Z" fill="#0033AD"/>
<path d="M12.8975 6.30504C13.0517 6.22647 13.1121 6.03608 13.0335 5.88195C12.9549 5.72783 12.7646 5.66738 12.6104 5.74596C12.4563 5.82453 12.3959 6.0119 12.4714 6.16603C12.553 6.32015 12.7404 6.38362 12.8975 6.30504Z" fill="#0033AD"/>
<path d="M10.9632 6.54682C10.7426 6.65864 10.652 6.92761 10.7638 7.14822C10.8756 7.36883 11.1446 7.45949 11.3652 7.34768C11.5858 7.23586 11.6765 6.96689 11.5646 6.74628C11.4528 6.52567 11.1839 6.43803 10.9632 6.54682Z" fill="#0033AD"/>
<path d="M8.46994 3.88737C8.6422 3.89644 8.79028 3.76347 8.80237 3.59121C8.81446 3.41895 8.67847 3.27087 8.50621 3.25878C8.33395 3.24971 8.18587 3.37966 8.17378 3.55192C8.16471 3.7272 8.29768 3.87528 8.46994 3.88737Z" fill="#0033AD"/>
<path d="M8.4671 5.8608C8.71491 5.87591 8.92646 5.68552 8.93855 5.43771C8.95366 5.1899 8.76327 4.97835 8.51546 4.96626C8.26764 4.95115 8.0561 5.14155 8.04401 5.38936C8.03192 5.63717 8.21929 5.84871 8.4671 5.8608Z" fill="#0033AD"/>
<path d="M6.03706 10.4423C6.25767 10.3305 6.34833 10.0615 6.23651 9.8409C6.1247 9.62029 5.85573 9.52962 5.63512 9.64144C5.41451 9.75326 5.32384 10.0222 5.43566 10.2428C5.54748 10.4634 5.81644 10.5541 6.03706 10.4423Z" fill="#0033AD"/>
<path d="M8.75724 6.51658C8.52756 6.87016 8.62427 7.34161 8.97786 7.57128C9.33144 7.80096 9.80289 7.70426 10.0326 7.35067C10.2622 6.99709 10.1655 6.52564 9.81195 6.29596C9.68805 6.21437 9.54299 6.17206 9.3949 6.17206C9.13803 6.17206 8.89928 6.30201 8.75724 6.51658Z" fill="#0033AD"/>
<path d="M10.0839 9.70791C9.89353 9.33014 9.43418 9.17904 9.05944 9.36943C8.68168 9.55982 8.53057 10.0192 8.72096 10.3939C8.91136 10.7717 9.37071 10.9228 9.74545 10.7324C10.1202 10.545 10.2743 10.0917 10.0869 9.71395C10.0869 9.71093 10.0869 9.71093 10.0839 9.70791Z" fill="#0033AD"/>
<path d="M11.4163 9.6535C11.2078 9.51751 10.9298 9.57493 10.7968 9.78345C10.6608 9.99198 10.7182 10.27 10.9268 10.403C11.1353 10.539 11.4133 10.4816 11.5463 10.273C11.6823 10.0675 11.6249 9.7895 11.4163 9.6535Z" fill="#0033AD"/>
<path d="M12.8794 8.50814C12.8915 8.29659 12.7313 8.11829 12.5198 8.1062C12.3082 8.09411 12.1299 8.25428 12.1178 8.46583C12.1057 8.67738 12.2659 8.85568 12.4775 8.86777C12.686 8.87986 12.8673 8.71666 12.8794 8.50814Z" fill="#0033AD"/>
<path d="M13.934 8.23617C13.798 8.2271 13.6801 8.33288 13.6741 8.46887C13.668 8.60486 13.7708 8.72272 13.9068 8.72877C14.0428 8.73784 14.1576 8.63206 14.1667 8.49607C14.1727 8.36007 14.07 8.24523 13.934 8.23617Z" fill="#0033AD"/>
<path d="M12.9396 10.6841C12.7945 10.5904 12.6011 10.6297 12.5044 10.7747C12.4107 10.9198 12.45 11.1132 12.595 11.2099C12.7401 11.3036 12.9335 11.2643 13.0302 11.1192C13.1269 10.9742 13.0846 10.7777 12.9396 10.6841Z" fill="#0033AD"/>
<path d="M5.93446 12.9869C5.81962 12.9113 5.66851 12.9446 5.59296 13.0564C5.51741 13.1712 5.55065 13.3223 5.66247 13.3979C5.77731 13.4734 5.92841 13.4402 6.00397 13.3284C6.08254 13.2166 6.0493 13.0624 5.93446 12.9869Z" fill="#0033AD"/>
<path d="M11.1084 12.9627C10.9876 13.0231 10.9392 13.1742 10.9997 13.2951C11.0601 13.416 11.2112 13.4644 11.3321 13.4039C11.453 13.3435 11.5013 13.1954 11.4409 13.0745C11.3804 12.9506 11.2324 12.8992 11.1084 12.9627C11.1115 12.9627 11.1084 12.9627 11.1084 12.9627Z" fill="#0033AD"/>
<path d="M8.24346 10.4725C8.47314 10.1189 8.37644 9.64748 8.02285 9.41478C7.66927 9.1851 7.19782 9.2818 6.96512 9.63539C6.73242 9.98897 6.83215 10.4604 7.18573 10.6931C7.30964 10.7747 7.4547 10.817 7.60278 10.817C7.86268 10.82 8.10143 10.6901 8.24346 10.4725Z" fill="#0033AD"/>
<path d="M6.71713 11.6421C6.54185 11.5272 6.30311 11.5756 6.18827 11.7509C6.07343 11.9261 6.12178 12.1649 6.29706 12.2797C6.47234 12.3946 6.71109 12.3462 6.82593 12.1709C6.94379 11.9956 6.89544 11.7569 6.71713 11.6421Z" fill="#0033AD"/>
<path d="M8.49724 13.1017C8.32498 13.0927 8.1769 13.2256 8.16481 13.3979C8.15272 13.5701 8.28872 13.7182 8.46098 13.7303C8.63323 13.7394 8.78132 13.6094 8.7934 13.4372C8.80247 13.2619 8.6695 13.1138 8.49724 13.1017Z" fill="#0033AD"/>
<path d="M8.50012 11.1283C8.25231 11.1132 8.04076 11.3036 8.02867 11.5514C8.01356 11.7992 8.20395 12.0107 8.45176 12.0228C8.69958 12.0349 8.91112 11.8475 8.92321 11.5997C8.93832 11.3549 8.74793 11.1404 8.50012 11.1283Z" fill="#0033AD"/>
<path d="M10.3344 11.6118C10.147 11.7085 10.0714 11.9382 10.1681 12.1256C10.2648 12.3129 10.4945 12.3885 10.6819 12.2918C10.8693 12.1981 10.9448 11.9684 10.8511 11.7811C10.7544 11.5937 10.5247 11.5151 10.3344 11.6118Z" fill="#0033AD"/>
</svg>
