<svg width="17" height="17" viewBox="0 0 17 17" fill="none" xmlns="http://www.w3.org/2000/svg">
<path d="M16.7438 10.5562C15.6085 15.1098 10.9965 17.8811 6.44232 16.7455C1.89007 15.6103 -0.881172 10.9979 0.254562 6.44468C1.3893 1.89056 6.00138 -0.880887 10.5541 0.254349C15.1079 1.38959 17.879 6.00245 16.7437 10.5563L16.7437 10.5562H16.7438Z" fill="#F3BA2F"/>
<path fill-rule="evenodd" clip-rule="evenodd" d="M8.50016 5.39468L6.29914 7.5957L6.29918 7.59561L5.01856 6.31494L8.50016 2.83334L11.9829 6.31599L10.7022 7.59665L8.50016 5.39468ZM4.11421 7.21912L2.8335 8.50001L4.11412 9.78045L5.39483 8.49974L4.11421 7.21912ZM6.29914 9.40445L8.50016 11.6053L10.7022 9.40341L11.9835 10.6834L11.9829 10.6841L8.50016 14.1667L5.01856 10.6851L5.01675 10.6833L6.29914 9.40445ZM12.8862 7.21984L11.6055 8.50055L12.8862 9.78118L14.1668 8.50046L12.8862 7.21984Z" fill="white"/>
<path d="M9.7988 8.49932H9.79935L8.49991 7.1998L7.53943 8.16L7.42909 8.27039L7.20152 8.49801L7.19971 8.49978L7.20152 8.50164L8.49991 9.80021L9.79944 8.50068L9.80007 8.49996L9.79889 8.49932" fill="white"/>
</svg>
