<svg width="34" height="34" viewBox="0 0 34 34" fill="none" xmlns="http://www.w3.org/2000/svg">
<path d="M33.0026 20.9914C30.7989 29.8308 21.8461 35.2103 13.0057 33.006C4.16896 30.8023 -1.21051 21.8489 0.994151 13.0103C3.19688 4.16991 12.1497 -1.20996 20.9874 0.993736C29.8272 3.19743 35.2063 12.1518 33.0024 20.9916L33.0026 20.9914H33.0026Z" fill="#50AF95"/>
<path fill-rule="evenodd" clip-rule="evenodd" d="M19.0879 18.8707C18.9712 18.8794 18.3684 18.9154 17.0238 18.9154C15.9543 18.9154 15.195 18.8833 14.9286 18.8707C10.7956 18.6889 7.71063 17.9694 7.71063 17.108C7.71063 16.2466 10.7956 15.5281 14.9286 15.3433V18.1541C15.1989 18.1736 15.9728 18.2193 17.0423 18.2193C18.3256 18.2193 18.9683 18.1658 19.084 18.1551V15.3453C23.2083 15.529 26.2864 16.2485 26.2864 17.108C26.2864 17.9675 23.2093 18.6869 19.084 18.8697L19.0879 18.8707ZM19.0879 15.0546V12.5394H24.8436V8.70386H9.17289V12.5394H14.9276V15.0536C10.2501 15.2685 6.73254 16.195 6.73254 17.3053C6.73254 18.4157 10.2501 19.3412 14.9276 19.5571V27.617H19.0869V19.5542C23.7537 19.3393 27.2655 18.4137 27.2655 17.3044C27.2655 16.195 23.7566 15.2695 19.0869 15.0536L19.0879 15.0546Z" fill="white"/>
</svg>
