<svg width="17" height="17" viewBox="0 0 17 17" fill="none" xmlns="http://www.w3.org/2000/svg">
<path d="M16.7438 10.5562C15.6085 15.1098 10.9965 17.8811 6.44232 16.7455C1.89007 15.6103 -0.881172 10.9979 0.254562 6.44468C1.3893 1.89056 6.00138 -0.880887 10.5541 0.254349C15.1079 1.38959 17.879 6.00245 16.7437 10.5563L16.7437 10.5562H16.7438Z" fill="#23292F"/>
<path d="M12.6794 3.54166H14.3947L10.8251 7.07607C9.53236 8.35535 7.43647 8.35535 6.14282 7.07607L2.57178 3.54166H4.28845L7.00046 6.22654C7.82265 7.03688 9.14316 7.03688 9.96535 6.22654L12.6794 3.54166Z" fill="white"/>
<path d="M4.26625 13.3698H2.5498L6.14263 9.81359C7.43536 8.53431 9.53125 8.53431 10.8249 9.81359L14.4177 13.3698H12.7024L9.96726 10.6631C9.14506 9.85278 7.82456 9.85278 7.00236 10.6631L4.26625 13.3698Z" fill="white"/>
</svg>
