<svg width="19" height="19" viewBox="0 0 19 19" fill="none" xmlns="http://www.w3.org/2000/svg">
<g clip-path="url(#clip0_179_3806)">
<path d="M9.86011 4.3819C10.5563 4.3819 11.224 4.65846 11.7163 5.15074C12.2085 5.64302 12.4851 6.3107 12.4851 7.0069C12.4851 7.70309 12.2085 8.37077 11.7163 8.86305C11.224 9.35534 10.5563 9.6319 9.86011 9.6319C9.16391 9.6319 8.49624 9.35534 8.00395 8.86305C7.51167 8.37077 7.23511 7.70309 7.23511 7.0069C7.23511 6.3107 7.51167 5.64302 8.00395 5.15074C8.49624 4.65846 9.16391 4.3819 9.86011 4.3819ZM4.61011 6.2569C5.03011 6.2569 5.42011 6.3694 5.75761 6.5719C5.64511 7.6444 5.96011 8.7094 6.60511 9.5419C6.23011 10.2619 5.48011 10.7569 4.61011 10.7569C4.01337 10.7569 3.44107 10.5198 3.01912 10.0979C2.59716 9.67593 2.36011 9.10363 2.36011 8.5069C2.36011 7.91016 2.59716 7.33786 3.01912 6.91591C3.44107 6.49395 4.01337 6.2569 4.61011 6.2569ZM15.1101 6.2569C15.7068 6.2569 16.2791 6.49395 16.7011 6.91591C17.1231 7.33786 17.3601 7.91016 17.3601 8.5069C17.3601 9.10363 17.1231 9.67593 16.7011 10.0979C16.2791 10.5198 15.7068 10.7569 15.1101 10.7569C14.2401 10.7569 13.4901 10.2619 13.1151 9.5419C13.7601 8.7094 14.0751 7.6444 13.9626 6.5719C14.3001 6.3694 14.6901 6.2569 15.1101 6.2569ZM4.98511 13.9444C4.98511 12.3919 7.16761 11.1319 9.86011 11.1319C12.5526 11.1319 14.7351 12.3919 14.7351 13.9444V15.2569H4.98511V13.9444ZM0.860107 15.2569V14.1319C0.860107 13.0894 2.27761 12.2119 4.19761 11.9569C3.75511 12.4669 3.48511 13.1719 3.48511 13.9444V15.2569H0.860107ZM18.8601 15.2569H16.2351V13.9444C16.2351 13.1719 15.9651 12.4669 15.5226 11.9569C17.4426 12.2119 18.8601 13.0894 18.8601 14.1319V15.2569Z" fill="#F8F8F8"/>
</g>
<defs>
<clipPath id="clip0_179_3806">
<rect width="18" height="18" fill="white" transform="translate(0.860474 0.255798)"/>
</clipPath>
</defs>
</svg>
