<svg width="29" height="19" viewBox="0 0 29 19" fill="none" xmlns="http://www.w3.org/2000/svg">
<path d="M10.5786 17.1207C10.4147 17.4016 10.5162 17.7683 10.7971 17.9322C11.0858 18.0961 11.437 18.0025 11.593 17.7137L16.4779 9.26273C16.8447 9.40316 17.4143 9.59826 18.0542 9.95718C19.9426 11.0575 20.6839 12.7898 22.6348 13.9213C23.1966 14.2569 23.8053 14.4988 24.2656 14.5534C24.8275 14.608 25.3191 14.4363 25.6703 13.8276L28.8072 8.38875C29.0569 7.95952 28.8696 7.56938 28.4716 7.33528C28.1283 7.1402 27.4026 6.96072 26.5754 6.48472C24.6792 5.39225 23.9457 3.65211 21.9948 2.52062C21.433 2.19288 20.8166 1.95098 20.3562 1.89635C19.8022 1.84173 19.3105 2.02121 18.9593 2.62987L10.5786 17.1207Z" fill="#F7F9FA"/>
<path d="M9.50964 0.991394C10.5162 0.890002 11.312 1.32661 11.8036 2.16913L20.1844 16.6682C20.5902 17.386 20.3408 18.3073 19.6307 18.7131C18.9128 19.1344 17.9994 18.8919 17.5858 18.1662L13.0995 10.4016C12.8888 10.4874 12.6383 10.597 12.3729 10.7531C10.7189 11.7051 10.0399 13.4138 7.79285 14.7092C7.153 15.0915 6.40346 15.3879 5.7948 15.4582C4.78836 15.5595 4.00023 15.1309 3.50867 14.2805L0.371948 8.841C-0.127266 7.9671 0.215776 7.03082 1.04285 6.54706C1.51105 6.28174 2.20582 6.12566 2.93933 5.69647C4.59342 4.73668 5.28013 3.0357 7.51941 1.74042C8.16705 1.35025 8.91661 1.06162 9.50964 0.991394ZM9.61121 1.89667C9.15085 1.95129 8.53433 2.19299 7.98035 2.52069C6.02948 3.65218 5.28769 5.39209 3.39148 6.48456C2.5647 6.96032 1.83946 7.14016 1.49597 7.33514C1.098 7.56924 0.918132 7.95963 1.16003 8.38885L4.29675 13.8273C4.64781 14.4359 5.13939 14.6074 5.70105 14.5529C6.16144 14.4983 6.77885 14.2566 7.33289 13.9211C9.29117 12.7895 10.0248 11.0574 11.9208 9.95721C12.5528 9.59835 13.1302 9.40331 13.4969 9.26288L18.3739 17.7141C18.5378 18.0026 18.8889 18.0956 19.1776 17.9318C19.4507 17.768 19.5524 17.4012 19.3885 17.1203L11.0155 2.63007C10.6644 2.02147 10.1729 1.8421 9.61121 1.89667ZM12.8729 8.20135C12.3736 8.34182 11.765 8.68506 11.328 8.93475C9.29133 10.113 8.5963 11.8452 6.74695 12.9064C6.54408 13.0235 5.95914 13.3517 5.40515 13.383L2.43933 8.24823C2.94655 8.1 3.54824 7.76456 3.98523 7.51483C6.0216 6.33657 6.71611 4.61216 8.56531 3.54315C8.76816 3.42613 9.35323 3.09014 9.91492 3.06659L12.8729 8.20135Z" fill="#F7F9FA"/>
</svg>
