<svg width="19" height="19" viewBox="0 0 19 19" fill="none" xmlns="http://www.w3.org/2000/svg">
<path d="M16.6107 13.7541V14.5041C16.6107 14.902 16.4527 15.2835 16.1714 15.5648C15.8901 15.8461 15.5085 16.0041 15.1107 16.0041H4.61072C3.77822 16.0041 3.11072 15.3291 3.11072 14.5041V4.00415C3.11072 3.60633 3.26875 3.22479 3.55006 2.94349C3.83136 2.66219 4.21289 2.50415 4.61072 2.50415H15.1107C15.5085 2.50415 15.8901 2.66219 16.1714 2.94349C16.4527 3.22479 16.6107 3.60633 16.6107 4.00415V4.75415H9.86072C9.02822 4.75415 8.36072 5.42915 8.36072 6.25415V12.2541C8.36072 12.652 8.51875 13.0335 8.80006 13.3148C9.08136 13.5961 9.46289 13.7541 9.86072 13.7541H16.6107ZM9.86072 12.2541H17.3607V6.25415H9.86072V12.2541ZM12.8607 10.3791C12.5623 10.3791 12.2762 10.2606 12.0652 10.0496C11.8542 9.83867 11.7357 9.55252 11.7357 9.25415C11.7357 8.95578 11.8542 8.66963 12.0652 8.45865C12.2762 8.24768 12.5623 8.12915 12.8607 8.12915C13.1591 8.12915 13.4452 8.24768 13.6562 8.45865C13.8672 8.66963 13.9857 8.95578 13.9857 9.25415C13.9857 9.55252 13.8672 9.83867 13.6562 10.0496C13.4452 10.2606 13.1591 10.3791 12.8607 10.3791Z" fill="#F8F8F8"/>
</svg>
