<svg width="19" height="19" viewBox="0 0 19 19" fill="none" xmlns="http://www.w3.org/2000/svg">
<path d="M9.86086 14.5049C10.5059 14.5049 11.0534 14.9099 11.2634 15.4724C11.6759 15.3824 12.0734 15.2549 12.4559 15.0824L11.1359 11.9699C10.7459 12.1574 10.3184 12.2549 9.86086 12.2549C9.40336 12.2549 8.97586 12.1574 8.58586 11.9699L7.26586 15.0824C7.64836 15.2549 8.04586 15.3824 8.45836 15.4724C8.66836 14.9099 9.21586 14.5049 9.86086 14.5049ZM14.5484 13.5749C14.3609 13.3199 14.2184 13.0049 14.2184 12.6299C14.2184 11.8124 14.8934 11.1299 15.7184 11.1299L15.9509 11.1524C16.1384 10.5524 16.2359 9.91494 16.2359 9.25494C16.2359 8.59494 16.1384 7.95744 15.9509 7.37994H15.7184C14.8859 7.37994 14.2184 6.71244 14.2184 5.87994C14.2184 5.50494 14.3384 5.19744 14.5484 4.93494C13.6859 4.00494 12.5534 3.32244 11.2634 3.03744C11.0534 3.59994 10.5059 4.00494 9.86086 4.00494C9.21586 4.00494 8.66836 3.59994 8.45836 3.03744C7.16836 3.32244 6.03586 4.00494 5.17336 4.93494C5.38336 5.19744 5.51086 5.52744 5.51086 5.87994C5.51086 6.71244 4.83586 7.37994 4.01086 7.37994H3.77086C3.58336 7.96494 3.48586 8.59494 3.48586 9.25494C3.48586 9.92244 3.59086 10.5599 3.77836 11.1674L4.01086 11.1299C4.84336 11.1299 5.51086 11.8199 5.51086 12.6299C5.51086 13.0049 5.39086 13.3274 5.18086 13.5824C5.42086 13.8449 5.69086 14.0849 5.96836 14.3024L7.39336 10.9574C7.05586 10.4699 6.86086 9.88494 6.86086 9.25494C6.86086 8.45929 7.17693 7.69623 7.73954 7.13362C8.30215 6.57101 9.06522 6.25494 9.86086 6.25494C10.6565 6.25494 11.4196 6.57101 11.9822 7.13362C12.5448 7.69623 12.8609 8.45929 12.8609 9.25494C12.8609 9.88494 12.6659 10.4699 12.3284 10.9574L13.7534 14.3024C14.0384 14.0849 14.3009 13.8374 14.5484 13.5749ZM9.86086 17.5049C9.11086 17.5049 8.48086 16.9499 8.36086 16.2224C7.88836 16.1249 7.42336 15.9674 6.97336 15.7724L6.23836 17.5049H4.61086L5.66836 15.0149C5.27086 14.7299 4.90336 14.3999 4.58086 14.0324C4.40086 14.1074 4.21336 14.1299 4.01086 14.1299C3.61304 14.1299 3.23151 13.9719 2.9502 13.6906C2.6689 13.4093 2.51086 13.0278 2.51086 12.6299C2.51086 12.1649 2.73586 11.7449 3.08836 11.4674C2.85586 10.7549 2.73586 10.0274 2.73586 9.25494C2.73586 8.50494 2.85586 7.75494 3.08086 7.06494C2.73586 6.78744 2.51086 6.36744 2.51086 5.87994C2.51086 5.06244 3.17836 4.37994 4.01086 4.37994C4.20586 4.37994 4.39336 4.42494 4.55836 4.49244C5.54836 3.38994 6.86086 2.60244 8.36086 2.28744C8.48086 1.55994 9.11086 1.00494 9.86086 1.00494C10.6109 1.00494 11.2409 1.55994 11.3609 2.28744C12.8609 2.60244 14.1659 3.38994 15.1559 4.48494C15.3284 4.41744 15.5159 4.37994 15.7184 4.37994C16.1162 4.37994 16.4977 4.53798 16.779 4.81928C17.0603 5.10059 17.2184 5.48212 17.2184 5.87994C17.2184 6.35994 16.9859 6.78744 16.6409 7.05744C16.8659 7.75494 16.9859 8.50494 16.9859 9.25494C16.9859 10.0049 16.8659 10.7549 16.6409 11.4524C16.9859 11.7299 17.2184 12.1574 17.2184 12.6299C17.2184 13.4699 16.5509 14.1299 15.7184 14.1299C15.5159 14.1299 15.3284 14.0999 15.1484 14.0249C14.8184 14.3924 14.4509 14.7224 14.0534 15.0149L15.1109 17.5049H13.4834L12.7484 15.7724C12.2984 15.9674 11.8334 16.1249 11.3609 16.2224C11.2409 16.9499 10.6109 17.5049 9.86086 17.5049Z" fill="#F8F8F8"/>
</svg>
