<svg width="19" height="19" viewBox="0 0 19 19" fill="none" xmlns="http://www.w3.org/2000/svg">
<path d="M6.88958 8.95125C6.64094 8.95125 6.40248 9.05003 6.22667 9.22584C6.05085 9.40166 5.95208 9.64011 5.95208 9.88875C5.95208 10.1374 6.05085 10.3759 6.22667 10.5517C6.40248 10.7275 6.64094 10.8263 6.88958 10.8263C7.01269 10.8263 7.1346 10.802 7.24834 10.7549C7.36209 10.7078 7.46544 10.6387 7.55249 10.5517C7.63955 10.4646 7.7086 10.3613 7.75572 10.2475C7.80283 10.1338 7.82708 10.0119 7.82708 9.88875C7.82708 9.76564 7.80283 9.64373 7.75572 9.52999C7.7086 9.41625 7.63955 9.3129 7.55249 9.22584C7.46544 9.13879 7.36209 9.06973 7.24834 9.02262C7.1346 8.9755 7.01269 8.95125 6.88958 8.95125ZM11.3896 8.95125C11.1409 8.95125 10.9025 9.05003 10.7267 9.22584C10.5508 9.40166 10.4521 9.64011 10.4521 9.88875C10.4521 10.1374 10.5508 10.3759 10.7267 10.5517C10.9025 10.7275 11.1409 10.8263 11.3896 10.8263C11.6382 10.8263 11.8767 10.7275 12.0525 10.5517C12.2283 10.3759 12.3271 10.1374 12.3271 9.88875C12.3271 9.64011 12.2283 9.40166 12.0525 9.22584C11.8767 9.05003 11.6382 8.95125 11.3896 8.95125ZM9.13958 1.63876C8.15466 1.63876 7.17939 1.83275 6.26945 2.20966C5.35951 2.58657 4.53272 3.13902 3.83628 3.83545C2.42976 5.24198 1.63958 7.14963 1.63958 9.13875C1.63958 11.1279 2.42976 13.0355 3.83628 14.4421C4.53272 15.1385 5.35951 15.6909 6.26945 16.0679C7.17939 16.4448 8.15466 16.6388 9.13958 16.6388C11.1287 16.6388 13.0364 15.8486 14.4429 14.4421C15.8494 13.0355 16.6396 11.1279 16.6396 9.13875C16.6396 8.15384 16.4456 7.17857 16.0687 6.26863C15.6918 5.35869 15.1393 4.53189 14.4429 3.83545C13.7464 3.13902 12.9196 2.58657 12.0097 2.20966C11.0998 1.83275 10.1245 1.63876 9.13958 1.63876ZM9.13958 15.1388C5.83208 15.1388 3.13958 12.4463 3.13958 9.13875C3.13958 8.92125 3.13958 8.70375 3.17708 8.49375C4.94708 7.70625 6.34958 6.25876 7.08458 4.46626C8.44208 6.38625 10.6771 7.63875 13.2046 7.63875C13.7896 7.63875 14.3521 7.57125 14.8921 7.44375C15.0496 7.97625 15.1396 8.54625 15.1396 9.13875C15.1396 12.4463 12.4471 15.1388 9.13958 15.1388Z" fill="#F8F8F8"/>
</svg>
