<svg width="132" height="163" viewBox="0 0 132 163" fill="none" xmlns="http://www.w3.org/2000/svg">
<path d="M105.506 3.36061C101.772 -1.12018 30.4708 -1.12018 25.2437 3.36061C20.0167 7.8414 21.4891 69.8095 25.2437 74.2903C26.7496 76.0873 39.2249 77.3422 53.9221 77.8408C60.2501 78.055 66.983 78.132 73.4382 78.0483C89.3904 77.8442 103.596 76.6796 105.51 74.2903C109.991 68.6919 109.244 7.8414 105.51 3.36061H105.506Z" fill="#C4DBEA"/>
<path d="M24.4138 115.277C24.0189 116.428 23.4299 117.93 22.7105 119.671C21.643 122.247 20.3011 125.312 18.9358 128.395C16.2118 134.538 13.3808 140.749 12.4471 143.212C13.6753 144.23 14.7461 145.421 15.7969 146.595C15.8906 146.703 15.8839 146.863 15.7768 146.957C15.6697 147.051 15.5091 147.044 15.4154 146.937C14.0501 145.411 12.6747 143.888 11.0115 142.771C9.61611 141.834 7.96635 141.194 6.32997 141.194C6.01876 141.194 5.7042 141.218 5.39633 141.265C5.25578 141.288 5.12528 141.191 5.10185 141.05C5.07843 140.91 5.17547 140.779 5.31602 140.756C5.654 140.702 5.99199 140.679 6.32997 140.679C8.1002 140.679 9.83697 141.362 11.296 142.342C11.547 142.51 11.7879 142.69 12.0255 142.874C12.7717 140.94 14.4918 137.088 16.426 132.755C18.4204 128.291 20.6391 123.325 22.2319 119.473C23.1288 117.308 23.8282 115.494 24.1762 114.33C22.938 109.334 21.3987 103.143 21.1176 99.2509C9.82693 106.834 -0.81119 138.591 0.0488274 142.647C0.283074 143.748 1.3673 144.912 2.87651 145.99C3.46882 145.361 3.94401 144.875 4.21841 144.624C5.8414 143.142 11.0885 145.658 11.5369 147.064C11.6641 147.459 11.9084 148.57 12.156 149.985C14.1203 150.387 15.76 150.377 16.5029 149.748C18.4873 148.064 23.5772 129.114 25.3708 119.299C25.1232 118.171 24.7886 116.793 24.4138 115.277Z" fill="#C4DBEA"/>
<path d="M21.2213 96.5671C21.0607 97.2197 21.0406 98.1433 21.1209 99.2509C21.402 103.143 22.9413 109.334 24.1795 114.33C23.8315 115.491 23.1321 117.305 22.2353 119.473C20.639 123.325 18.4204 128.291 16.4293 132.755C14.4951 137.088 12.7751 140.94 12.0288 142.874C11.7912 142.69 11.5503 142.513 11.2993 142.342C9.84029 141.362 8.10353 140.682 6.3333 140.679C5.99531 140.679 5.65733 140.702 5.31935 140.756C5.1788 140.779 5.08175 140.91 5.10517 141.05C5.1286 141.191 5.25911 141.288 5.39966 141.265C5.71087 141.218 6.02208 141.194 6.3333 141.194C7.96967 141.194 9.61943 141.83 11.0149 142.771C12.678 143.888 14.0534 145.411 15.4187 146.937C15.5124 147.044 15.6764 147.051 15.7801 146.957C15.8872 146.863 15.8939 146.699 15.8002 146.595C14.7494 145.424 13.6786 144.233 12.4505 143.212C13.3841 140.746 16.2118 134.535 18.9391 128.394C20.3044 125.312 21.6463 122.247 22.7138 119.67C23.4333 117.93 24.0222 116.428 24.4171 115.277C24.7919 116.796 25.1265 118.175 25.3742 119.299C25.5549 120.129 25.6887 120.828 25.7556 121.344C26.0167 123.412 27.1912 124.315 28.4762 124.463C27.4857 114.912 26.9871 103.076 26.9068 91.6045C24.3 92.6586 21.7467 94.4589 21.2247 96.5671H21.2213Z" fill="#27224F"/>
<path d="M99.0948 89.4092C99.9482 89.3791 100.704 89.8777 101.046 90.6106C101.759 90.6139 102.615 90.7511 103.525 90.9988C103.535 90.0852 103.546 89.1716 103.552 88.2648C103.592 84.2023 89.4472 81.1437 73.301 80.1197C73.214 81.1905 73.1036 81.9636 72.9797 82.2815C70.6473 88.1543 57.553 88.5258 54.4375 82.2815C54.3003 82.0104 54.1765 81.1504 54.0694 79.9223C39.2583 80.615 26.8768 83.446 26.8901 89.262C26.8901 90.0417 26.8968 90.8214 26.9002 91.6045C26.9838 103.076 27.4791 114.912 28.4696 124.462C29.3832 133.28 30.7217 140.154 32.5422 142.981C34.3593 145.802 39.2717 147.88 45.6633 149.232C48.0158 149.731 50.5691 150.129 53.2462 150.43C62.703 151.494 73.6691 151.337 82.6106 149.982C85.3446 149.567 87.8878 149.042 90.1399 148.406C94.8416 147.077 98.2783 145.267 99.5265 142.981C101.083 140.124 102.02 132.792 102.598 123.408C102.485 123.425 102.374 123.435 102.267 123.445C102.1 124.392 101.287 125.128 100.289 125.162C99.1484 125.199 98.1813 124.295 98.1411 123.154L97.087 91.5576C97.0502 90.4131 97.9537 89.4494 99.0948 89.4092Z" fill="#C4DBEA"/>
<path d="M86.5627 102.678C85.7194 101.848 82.8984 101.687 78.9932 101.744C78.9932 101.747 78.9932 101.754 78.9932 101.757C78.9865 101.898 78.8694 102.012 78.7288 102.005C77.1694 101.951 75.5799 101.915 73.9636 101.888C66.973 101.771 59.4102 101.841 51.0342 101.557C47.2696 101.429 43.3443 101.229 39.2316 100.907C39.091 100.897 38.9839 100.774 38.994 100.63C39.004 100.489 39.1278 100.382 39.2717 100.392C40.105 100.459 40.9282 100.516 41.7481 100.573C36.6716 100.057 32.8032 99.88 31.1568 101.068C29.0419 102.591 29.082 110.946 29.41 116.759C30.1495 129.934 32.6125 140.395 36.3704 143.718C41.989 148.684 81.1215 150.608 85.7562 145.762C90.3909 140.917 90.6319 106.673 86.5627 102.674V102.678Z" fill="#DBEBF4"/>
<path d="M99.0949 89.4092C97.9505 89.4461 97.0469 90.4132 97.0871 91.5576L98.1412 123.154C98.178 124.299 99.1451 125.202 100.29 125.162C101.287 125.128 102.1 124.389 102.267 123.445C101.32 123.526 100.591 123.368 100.29 122.9C98.9611 120.835 98.2014 93.4115 99.2154 91.2966C99.4463 90.8181 100.126 90.6039 101.049 90.6106C100.705 89.8811 99.9516 89.3825 99.0983 89.4092H99.0949Z" fill="#659EB9"/>
<path d="M107.551 96.6073C108.886 97.3368 110.215 98.4277 111.52 99.7863C111.379 98.5114 111.209 97.4037 111.005 96.5705C110.365 93.9737 106.641 91.8421 103.529 90.9988C102.619 90.7511 101.762 90.6173 101.049 90.6106C100.126 90.6039 99.4462 90.8147 99.2153 91.2966C98.2014 93.4115 98.961 120.835 100.29 122.9C100.591 123.368 101.32 123.526 102.267 123.445C102.374 123.435 102.485 123.425 102.599 123.408C103.505 123.285 104.573 122.967 105.657 122.505C104.483 117.201 103.666 112.847 103.656 111.696C103.616 107.038 104.911 95.1583 107.551 96.6073Z" fill="#27224F"/>
<path d="M99.8478 126.293C99.6804 126.343 99.5064 126.37 99.3324 126.37C98.5561 126.373 97.7295 125.865 97.2543 125.179C96.6587 124.329 96.4512 123.231 96.3173 122.133C95.8723 118.533 95.6715 109.852 95.6715 102.704C95.6715 98.0027 95.7585 93.9436 95.9158 92.4477C95.9292 92.3072 95.8288 92.18 95.6882 92.1666C95.5477 92.1533 95.4205 92.2537 95.4071 92.3942C95.2465 93.9436 95.1628 97.9893 95.1628 102.704C95.1628 109.869 95.3603 118.536 95.812 122.197C95.9526 123.311 96.1567 124.493 96.836 125.473C97.4016 126.28 98.3385 126.882 99.3358 126.885C99.5566 126.885 99.7808 126.855 100.002 126.788C100.139 126.748 100.213 126.604 100.172 126.467C100.132 126.33 99.9883 126.256 99.8511 126.296L99.8478 126.293Z" fill="#27224F"/>
<path d="M38.9973 100.63C38.9872 100.77 39.0909 100.894 39.2348 100.907C43.3509 101.232 47.2728 101.429 51.0375 101.557C59.4135 101.841 66.9763 101.771 73.9669 101.888C75.5831 101.915 77.1727 101.951 78.7321 102.005C78.8726 102.008 78.9931 101.898 78.9964 101.757C78.9964 101.754 78.9964 101.747 78.9964 101.744C78.9964 101.607 78.8894 101.496 78.7522 101.493C68.0137 101.122 56.0102 101.547 41.7513 100.573C40.9315 100.516 40.1116 100.459 39.275 100.392C39.1345 100.382 39.0106 100.486 38.9973 100.63Z" fill="#27224F"/>
<path d="M53.1157 98.1667C60.2501 98.3206 67.3813 98.6319 74.5023 99.0736C78.0194 99.2911 81.5364 99.5421 85.0468 99.8533C85.7395 99.9135 86.3318 99.2175 86.3318 98.5683C86.3318 97.822 85.7395 97.3435 85.0468 97.2833C71.5006 96.092 57.8508 95.4662 44.2545 95.5097C40.9349 95.5197 37.6086 95.58 34.2957 95.7774C32.6526 95.8745 32.6392 98.4478 34.2957 98.3474C40.5567 97.9726 46.8479 98.0329 53.1157 98.1667Z" fill="white"/>
<path d="M33.9476 104.595C33.9777 102.939 31.4077 102.939 31.3776 104.595C31.1735 115.929 31.0195 127.585 34.7775 138.437C35.3163 139.99 37.7993 139.324 37.2572 137.754C33.5728 127.106 33.7468 115.715 33.951 104.595H33.9476Z" fill="white"/>
<path d="M72.9831 82.2814C73.1103 81.9635 73.2174 81.1905 73.3044 80.1197C73.3546 79.514 73.3981 78.8179 73.4349 78.0483C66.9831 78.1319 60.2468 78.055 53.9188 77.8408C53.9623 78.6105 54.0125 79.3132 54.0661 79.9222C54.1731 81.147 54.3003 82.0104 54.4342 82.2814C57.553 88.5258 70.6473 88.1543 72.9764 82.2814H72.9831Z" fill="#27224F"/>
<path d="M91.5153 15.866C88.5303 12.4192 31.4847 12.4192 27.3051 15.866C23.1255 19.3128 24.3034 66.9885 27.3051 70.4353C30.3068 73.8821 87.9313 74.7421 91.5153 70.4353C95.0993 66.1285 94.5003 19.3128 91.5153 15.866Z" fill="#27224F"/>
<path d="M67.6991 38.4473C65.4336 38.628 63.1614 38.7586 60.8892 38.8456C60.8658 41.2081 60.819 43.574 60.7386 45.9365C63.1648 45.9031 65.5842 45.8495 68.0003 45.7859C67.8932 43.3966 67.7961 40.9304 67.6991 38.4473Z" fill="#252F6D"/>
<path d="M68.0471 46.8969C65.5942 47.0977 63.138 47.2449 60.6817 47.3353C60.6115 49.1089 60.5278 50.8824 60.4241 52.6527C63.0677 52.6159 65.7013 52.559 68.3315 52.4854C68.2312 50.6984 68.1375 48.8244 68.0471 46.8936V46.8969Z" fill="#252F6D"/>
<path d="M76.0752 45.9934C73.7829 46.3247 71.4806 46.5891 69.1716 46.7965C69.1348 48.6872 69.0612 50.5779 68.9474 52.4686C71.3869 52.3984 73.8164 52.308 76.2391 52.2043C76.1789 50.1429 76.1254 48.0749 76.0752 45.9968V45.9934Z" fill="#252F6D"/>
<path d="M69.1482 38.3202C69.2017 40.7965 69.2218 43.2728 69.1883 45.7491C71.4907 45.6822 73.7829 45.5985 76.0652 45.4981C76.0049 42.8512 75.9447 40.1975 75.8811 37.5438C73.6457 37.8617 71.4003 38.1194 69.1482 38.3202Z" fill="#252F6D"/>
<path d="M41.062 52.6995C40.8412 50.8423 40.6705 48.9784 40.5366 47.1111C38.1641 46.9739 35.7948 46.7865 33.429 46.5489C33.5059 48.5868 33.5896 50.6181 33.6732 52.6393C36.1295 52.6627 38.5924 52.6862 41.062 52.7029V52.6995Z" fill="#252F6D"/>
<path d="M68.8569 31.4969C68.9506 33.0262 69.0276 34.5522 69.0912 36.0815C69.1046 36.4763 69.1113 36.8745 69.1213 37.2694C71.3801 37.2058 73.6289 37.1222 75.8709 37.0251C75.8174 34.8667 75.7572 32.7117 75.6869 30.5599C73.4214 30.9381 71.1425 31.2526 68.8603 31.4969H68.8569Z" fill="#252F6D"/>
<path d="M59.6311 47.3654C57.7672 47.4256 55.9032 47.4658 54.0393 47.4792C53.1893 47.4792 52.3394 47.4725 51.4927 47.4624C51.4291 49.2159 51.3488 50.9694 51.2551 52.7196C54.1364 52.7129 57.0142 52.6962 59.8888 52.6594C59.7884 50.8958 59.7014 49.1323 59.6344 47.3654H59.6311Z" fill="#252F6D"/>
<path d="M50.6025 52.723C50.5054 50.9661 50.4285 49.2093 50.3616 47.4524C47.477 47.4123 44.5924 47.3253 41.7112 47.1747C41.7313 49.0252 41.7547 50.8691 41.7681 52.7062C44.7062 52.723 47.651 52.7297 50.5991 52.7263L50.6025 52.723Z" fill="#252F6D"/>
<path d="M82.4332 57.0632C85.3981 53.9578 84.9028 20.2096 82.4332 17.7232C81.5598 16.8465 75.118 16.2809 66.9963 16.0199C67.418 18.1516 67.756 20.2966 68.0304 22.4517C70.4766 22.378 72.9127 22.2877 75.3355 22.1806C75.2552 20.668 75.1682 19.1622 75.0644 17.663C75.4359 19.1488 75.7438 20.6446 76.0048 22.1505C76.9317 22.107 77.862 22.0735 78.7856 22.0233C77.8821 22.194 76.9752 22.3479 76.0684 22.4985C76.5 25.0518 76.7878 27.6285 76.9886 30.2119C77.2998 30.1952 77.6177 30.1851 77.9289 30.1684C77.6177 30.2286 77.3065 30.2755 76.9986 30.329C77.1693 32.5376 77.2764 34.7496 77.3433 36.9548C78.3573 36.908 79.3779 36.8678 80.3885 36.8143C79.3779 37.0017 78.364 37.169 77.3467 37.3263C77.3868 40.0302 77.3735 42.734 77.2798 45.4379C78.3138 45.391 79.3545 45.3509 80.3852 45.294C79.3478 45.4847 78.3071 45.6588 77.2664 45.8194C77.1861 47.941 77.0589 50.0559 76.8615 52.1708C78.036 52.1173 79.2173 52.0704 80.3852 52.0068C79.2006 52.2243 78.0093 52.4184 76.818 52.5991C76.6941 53.8841 76.5502 55.1691 76.3695 56.4475C76.3227 55.1959 76.2825 53.9377 76.2457 52.6761C73.7962 53.0342 71.3366 53.3119 68.8703 53.5294C68.7933 54.6638 68.7063 55.7983 68.5959 56.9293C68.5223 55.8585 68.452 54.7341 68.3817 53.5696C65.7013 53.7971 63.0142 53.9544 60.3237 54.0515C60.2634 55.0119 60.2099 55.9689 60.143 56.9293C60.0727 55.9756 60.0225 55.0186 59.9623 54.0615C57.9846 54.1284 56.0035 54.1686 54.0258 54.1853C53.0654 54.1853 52.1083 54.1786 51.1479 54.1686C51.0743 55.3967 51.004 56.6282 50.917 57.8563C50.83 56.6282 50.7564 55.3967 50.6861 54.1652C47.7145 54.1284 44.7396 54.0381 41.7714 53.8841C41.7814 55.2127 41.7915 56.5378 41.7948 57.8563C41.5673 56.5278 41.3765 55.1926 41.2058 53.8574C38.6961 53.7202 36.193 53.5328 33.6899 53.2851C33.7367 54.3861 33.7802 55.4871 33.8237 56.5813C33.5995 55.4904 33.3921 54.3694 33.1946 53.2349C31.488 53.0609 29.7847 52.8635 28.0847 52.6292C28.426 54.965 28.8443 56.588 29.3162 57.0598C31.7992 59.5429 79.4616 60.1653 82.4265 57.0598L82.4332 57.0632Z" fill="#252F6D"/>
<path d="M33.0976 52.6326C32.7596 50.6114 32.4752 48.5367 32.2476 46.4251C30.7117 46.2578 29.1757 46.0771 27.643 45.8629C29.1556 45.8796 30.6748 45.8964 32.1974 45.9098C31.9264 43.2695 31.7524 40.579 31.6888 37.8852C30.3402 37.7346 28.9883 37.5706 27.643 37.3798C28.9816 37.3932 30.3302 37.41 31.6754 37.4233C31.6386 35.3319 31.6754 33.2404 31.7825 31.169C30.6514 31.0251 29.5204 30.8712 28.3893 30.6971C29.5237 30.7172 30.6648 30.7306 31.8059 30.7473C31.9565 28.1171 32.2376 25.5303 32.6626 23.0273C31.5215 22.8834 30.3837 22.7294 29.2493 22.5521C30.4071 22.5721 31.5717 22.5855 32.7329 22.6056C33.0307 20.9157 33.3921 19.2592 33.8305 17.6664C33.6665 19.3094 33.536 20.9592 33.4356 22.619C35.9019 22.6525 38.3782 22.6826 40.8646 22.7027C41.1022 20.735 41.4067 18.774 41.8049 16.8298C41.7346 18.7774 41.6878 20.7417 41.651 22.7093C44.5991 22.7294 47.5573 22.7328 50.5188 22.7261C50.6293 20.4505 50.7564 18.175 50.9204 15.9028C40.3325 16.0534 30.8087 16.6625 29.3263 17.7266C26.5287 19.7344 26.6324 42.5935 28.0881 52.5824C29.7546 52.6025 31.4278 52.6192 33.1043 52.636L33.0976 52.6326Z" fill="#252F6D"/>
<path d="M51.3354 22.7194C54.1263 22.7093 56.9172 22.6859 59.708 22.6424C59.8118 20.3869 59.9356 18.1315 60.0895 15.8794C57.0577 15.8493 53.9556 15.8526 50.9338 15.8961C51.0978 18.1683 51.225 20.4438 51.3354 22.716V22.7194Z" fill="#252F6D"/>
<path d="M68.1609 23.5024C68.4353 25.8415 68.6395 28.194 68.7968 30.5465C71.0991 30.4696 73.3913 30.3792 75.6735 30.2721C75.5899 27.7088 75.4895 25.1522 75.359 22.6123C72.9697 22.9837 70.567 23.2749 68.1576 23.5024H68.1609Z" fill="#252F6D"/>
<path d="M40.4597 45.9834C40.3024 43.5271 40.2054 41.0675 40.1518 38.608C37.8227 38.4674 35.5004 38.28 33.178 38.0424C33.2248 40.6727 33.3051 43.2996 33.4022 45.9231C35.748 45.9466 38.0971 45.9666 40.4597 45.9834Z" fill="#252F6D"/>
<path d="M60.22 15.8827C60.3739 18.1315 60.4977 20.3803 60.6015 22.6324C62.7833 22.5956 64.9618 22.5454 67.1336 22.4851C67.0533 20.2129 66.973 18.0411 66.8926 16.0199C64.7577 15.953 62.5122 15.9062 60.22 15.8827Z" fill="#252F6D"/>
<path d="M60.8692 30.7507C63.0577 30.7105 65.2395 30.657 67.4147 30.59C67.331 28.2041 67.2507 25.8549 67.1737 23.5961C65.0086 23.7869 62.8368 23.9274 60.665 24.0211C60.7554 26.2632 60.829 28.5086 60.8692 30.754V30.7507Z" fill="#252F6D"/>
<path d="M41.584 30.8544C44.4619 30.8711 47.3465 30.8745 50.2344 30.8644C50.2779 28.6324 50.3582 26.4004 50.4519 24.1683C47.5105 24.1282 44.569 24.0345 41.6342 23.8571C41.6008 26.1795 41.5807 28.5153 41.5807 30.8544H41.584Z" fill="#252F6D"/>
<path d="M40.125 37.3464C40.1183 35.5527 40.1384 33.7557 40.1919 31.9587C37.8361 31.8081 35.4869 31.5973 33.1445 31.3262C33.1244 33.3608 33.1344 35.3988 33.1679 37.4367C35.4802 37.4601 37.7993 37.4802 40.1283 37.4969C40.1283 37.4468 40.1283 37.3966 40.1283 37.3464H40.125Z" fill="#252F6D"/>
<path d="M60.8792 32.1093C60.9026 33.8896 60.9093 35.6732 60.8992 37.4534C63.1547 37.42 65.4068 37.3731 67.6556 37.3162C67.5853 35.4189 67.5183 33.5181 67.4514 31.6341C65.2662 31.8449 63.0744 31.9989 60.8792 32.1093Z" fill="#252F6D"/>
<path d="M50.3214 46.0068C50.2478 43.661 50.2043 41.3152 50.1876 38.966C47.3298 38.9259 44.472 38.8355 41.6208 38.6849C41.6443 41.1211 41.671 43.5573 41.7012 45.9867C44.569 46.0035 47.4469 46.0101 50.3248 46.0068H50.3214Z" fill="#252F6D"/>
<path d="M50.1741 37.5271C50.1708 35.7903 50.1808 34.0569 50.2076 32.3201C47.3297 32.29 44.4518 32.1997 41.5773 32.039C41.5773 33.8595 41.5907 35.6832 41.6074 37.507C44.4585 37.5237 47.313 37.5304 50.1741 37.5271Z" fill="#252F6D"/>
<path d="M59.4236 38.8924C57.6266 38.9493 55.8329 38.9861 54.0393 38.9995C53.2495 38.9995 52.4564 38.9928 51.6667 38.9861C51.65 41.3286 51.6065 43.6677 51.5328 46.0068C54.2166 46.0001 56.8971 45.9834 59.5742 45.9499C59.4939 43.5974 59.447 41.2483 59.4236 38.8958V38.8924Z" fill="#252F6D"/>
<path d="M33.1511 30.7674C35.507 30.8009 37.8662 30.8276 40.2354 30.8444C40.3257 28.4885 40.483 26.1327 40.7373 23.7902C38.2878 23.6262 35.845 23.4054 33.4088 23.1109C33.2616 25.6475 33.1812 28.2007 33.1511 30.7641V30.7674Z" fill="#252F6D"/>
<path d="M54.0393 24.1918C53.1592 24.1918 52.2824 24.1884 51.4023 24.1784C51.4994 26.4037 51.5764 28.6324 51.6199 30.8611C54.23 30.8477 56.8369 30.8243 59.4403 30.7808C59.4805 28.5387 59.5508 26.3 59.6411 24.0579C57.7738 24.1282 55.9032 24.1717 54.0359 24.1884L54.0393 24.1918Z" fill="#252F6D"/>
<path d="M53.1826 32.3368C52.6706 32.3368 52.1586 32.3335 51.6466 32.3301C51.6734 34.0636 51.6834 35.7936 51.6801 37.5271C54.2568 37.5204 56.8368 37.5036 59.4102 37.4702C59.4002 35.7066 59.4068 33.9464 59.4303 32.1829C57.3488 32.2699 55.264 32.3168 53.1826 32.3368Z" fill="#252F6D"/>
<path d="M50.8434 83.2051C52.5567 88.6764 57.9946 92.7021 63.7236 92.7422H63.7972C69.5028 92.7355 74.9473 88.7868 76.7209 83.3623C76.7811 83.1749 76.6807 82.9742 76.49 82.9106C76.3026 82.8503 76.1018 82.9507 76.0382 83.1415C74.3818 88.2547 69.1681 92.0361 63.7972 92.0294H63.7269C58.3292 92.0027 53.1223 88.1476 51.5227 82.9942C51.4625 82.8068 51.2617 82.6998 51.0743 82.76C50.8869 82.8202 50.7798 83.021 50.8401 83.2084L50.8434 83.2051Z" fill="#27224F"/>
<path d="M105.898 9.40417C105.413 5.18439 102.619 7.63394 100.892 9.39078C98.3653 11.9675 96.7022 14.7349 96.0095 18.3323C95.8422 19.2057 95.7351 20.0858 95.6614 20.9692C96.0797 25.4366 96.6085 31.0017 96.6085 35.1143C96.6085 35.8238 96.5917 36.4931 96.5583 37.1054C96.5482 37.2928 96.3943 37.4334 96.2102 37.4367C96.3876 42.9281 96.3374 48.4296 96.053 53.9176C96.227 53.9444 96.3608 54.095 96.3575 54.2757C96.2772 57.1168 96.1232 59.9545 95.899 62.7889C95.715 65.0811 95.4707 67.447 94.6006 69.6355C94.4768 70.5591 94.3497 71.4827 94.2125 72.403C94.1656 72.7276 94.1188 73.0756 94.2493 73.3768C94.4266 73.7884 94.8817 74.0025 95.3134 74.1297C98.5393 75.0734 102.02 72.8982 103.683 69.9769C105.346 67.0555 105.62 63.5753 105.848 60.2222C106.989 43.2962 107.839 26.2565 105.905 9.40082L105.898 9.40417Z" fill="#DBEBF4"/>
<path d="M97.9938 2.92559C97.0936 2.53741 96.093 2.49056 95.1126 2.45375C81.2352 1.91833 67.341 2.00868 53.4569 2.09904C45.5695 2.14923 37.6353 2.20612 29.8784 3.62833C29.1823 3.75549 28.4495 3.91612 27.9442 4.40803C27.5292 4.8096 27.3284 5.38183 27.141 5.92729C26.4985 7.8113 25.9497 10.1671 27.3652 11.5693C28.426 12.6167 30.1059 12.6 31.5951 12.5129C40.4931 11.9876 49.3911 11.4254 58.3058 11.1777C58.3225 11.0071 58.453 10.8632 58.6304 10.8531C64.8948 10.4382 71.1726 10.2307 77.4504 10.2307C80.8035 10.2307 84.1565 10.291 87.5096 10.4081C88.6574 10.4482 89.8922 10.5319 91.0434 10.8431C91.803 11.0472 92.5292 11.3618 93.1583 11.8336C94.962 11.0774 96.5381 9.6953 98.1912 7.992C98.9776 7.18218 99.8209 6.22511 99.7439 5.10073C99.677 4.12359 98.8906 3.31377 97.9938 2.92559Z" fill="#DBEBF4"/>
<path d="M96.3541 54.279C96.3608 54.0983 96.2236 53.9478 96.0496 53.921C96.0362 53.921 96.0228 53.9109 96.0061 53.9109C95.8086 53.9042 95.6447 54.0615 95.638 54.259C95.5577 57.0866 95.4037 59.9143 95.1795 62.7353C94.9854 65.215 94.7177 67.708 93.7105 69.9066C93.1449 71.1448 92.315 72.2859 91.1773 72.9083C90.4511 73.3099 89.5911 73.5006 88.7143 73.6713C84.8292 74.4376 80.8872 74.9128 76.9318 75.0968C76.7343 75.1069 76.5804 75.2742 76.5904 75.4716C76.6005 75.6691 76.7678 75.823 76.9652 75.813C80.9574 75.6289 84.9329 75.147 88.8549 74.374C89.7417 74.2 90.6753 74.0026 91.5253 73.5341C92.8571 72.8012 93.7573 71.5262 94.363 70.2044C94.4467 70.017 94.5203 69.8296 94.5939 69.6389C95.464 67.4504 95.7116 65.0878 95.8923 62.7922C96.1165 59.9578 96.2704 57.1201 96.3508 54.279H96.3541Z" fill="#27224F"/>
<path d="M87.5096 10.4081C84.1566 10.291 80.8035 10.2307 77.4504 10.2307C71.1726 10.2307 64.8948 10.4382 58.6304 10.8531C58.4531 10.8665 58.3192 11.0071 58.3058 11.1777C58.3058 11.1978 58.2958 11.2146 58.2991 11.2346C58.3125 11.4321 58.4832 11.5827 58.6806 11.5693C64.1821 11.2045 69.6969 11.0104 75.2117 10.9669C75.958 10.9602 76.7075 10.9468 77.4538 10.9468C80.8002 10.9468 84.1432 11.0071 87.4896 11.1242C88.6173 11.1644 89.8053 11.248 90.8627 11.5358C91.3948 11.6797 91.8867 11.8738 92.3284 12.1315C92.7668 12.3891 93.1516 12.7137 93.4662 13.1186C94.2927 14.1761 94.4835 15.6585 94.5973 17.1243C94.9721 21.759 95.8956 29.7434 95.8923 35.1144C95.8923 35.8137 95.8756 36.4696 95.8421 37.0653C95.8321 37.2627 95.9827 37.43 96.1801 37.4434C96.1901 37.4434 96.2002 37.4401 96.2102 37.4401C96.3943 37.4367 96.5482 37.2962 96.5582 37.1088C96.5917 36.4964 96.6084 35.8271 96.6084 35.1177C96.6084 31.005 96.0797 25.44 95.6614 20.9726C95.5242 19.5269 95.4004 18.1951 95.31 17.0674C95.2063 15.8359 95.0657 14.504 94.4534 13.3529C94.4969 13.3328 94.5404 13.306 94.5738 13.2692C97.5053 10.1805 100.604 7.24576 103.85 4.48835C104.001 4.36118 104.017 4.13363 103.89 3.98304C103.763 3.83246 103.535 3.81573 103.385 3.94289C100.129 6.71034 97.02 9.6518 94.0786 12.7505C94.0618 12.7271 94.0485 12.7003 94.0284 12.6769C93.7707 12.3456 93.4762 12.0679 93.1583 11.8303C92.5325 11.3585 91.8064 11.0472 91.0434 10.8398C89.8923 10.5286 88.6541 10.4449 87.5096 10.4047V10.4081Z" fill="#27224F"/>
<path d="M38.9203 8.89885C51.5897 7.7042 64.3494 7.49003 77.0522 8.28981C80.5157 8.50732 83.996 8.89216 87.4595 8.46382C88.0986 8.38351 88.6508 7.9719 88.6508 7.27251C88.6508 6.69024 88.102 6.00089 87.4595 6.0812C84.3774 6.45934 81.2887 6.18829 78.2067 5.98081C75.0344 5.76664 71.8553 5.61271 68.6729 5.52571C62.3115 5.345 55.9467 5.41862 49.5919 5.73987C46.028 5.92058 42.4708 6.1816 38.9203 6.51623C38.2778 6.57647 37.729 7.02153 37.729 7.70754C37.729 8.30654 38.2778 8.96243 38.9203 8.89885Z" fill="white"/>
<path d="M105.473 50.7653C105.339 39.478 104.894 28.194 104.145 16.9268C104.044 15.4042 101.658 15.3908 101.759 16.9268C102.508 28.1907 102.953 39.4747 103.087 50.7653C103.104 52.298 105.49 52.3046 105.473 50.7653Z" fill="white"/>
<path d="M34.048 92.7991C35.0753 93.0869 36.1562 93.1003 37.2237 93.1003C41.1557 93.1003 45.0876 92.9129 48.9996 92.5414C49.4078 92.5013 49.8462 92.4511 50.1607 92.1901C50.7698 91.6881 50.6259 90.7344 50.4184 89.9748C49.9165 88.1376 49.3476 86.3172 48.7151 84.5168C48.5009 83.9045 48.26 83.272 47.7848 82.8269C46.9415 82.0405 45.6431 82.0874 44.4987 82.2145C40.4128 82.6696 34.6838 83.1682 31.14 85.4304C27.7099 87.6189 31.1902 92.0027 34.048 92.7991Z" fill="#DBEBF4"/>
<path d="M95.3134 86.7422C94.9855 85.8621 94.1656 85.2598 93.3256 84.8415C91.4851 83.9212 89.4004 83.6368 87.3624 83.369C85.4148 83.1114 81.6401 81.7795 79.9703 83.262C79.1538 83.9881 78.8425 85.4003 78.3406 86.3272C77.6947 87.5252 76.8782 88.5526 76.0684 89.6335C75.6434 90.1287 75.1816 90.6173 74.934 91.223C74.6864 91.8287 74.7098 92.5983 75.1749 93.0568C75.4761 93.3513 75.9044 93.4718 76.3127 93.5721C80.3317 94.5493 84.508 94.74 88.6407 94.5392C89.6112 94.4924 90.6017 94.4188 91.4851 94.0172C93.0646 93.3011 94.0217 91.6915 94.7612 90.1254C95.2632 89.0646 95.7183 87.8498 95.31 86.7489L95.3134 86.7422Z" fill="#DBEBF4"/>
<path d="M2.57871 142.811C2.55529 143.182 2.55194 143.861 2.56532 144.725C2.6356 148.965 3.15429 157.779 4.23182 157.98C5.25916 158.171 5.41643 156.655 5.43986 156.009C5.43986 157.016 5.49005 160.423 6.36011 160.5C7.37741 160.59 7.88606 157.551 7.88606 157.551C7.88606 157.551 7.76224 161.289 8.72265 161.199C9.68641 161.109 9.93404 157.568 9.93404 157.568C9.93404 157.568 9.86711 159.854 10.948 159.827C12.0289 159.8 13.3406 147.124 13.3406 147.124C13.3406 147.124 18.3468 150.273 18.9458 148.309C19.3775 146.897 14.9904 143.306 12.0088 141.144C10.8443 140.301 9.89723 139.672 9.53247 139.474C8.23408 138.775 2.71256 140.619 2.57871 142.814V142.811Z" fill="#27224F"/>
<path d="M8.32782 128.699C10.2219 123.254 12.2063 117.74 15.054 112.707C15.6865 111.586 16.4695 110.331 17.1957 109.4C17.45 109.073 17.9051 108.544 18.2732 108.172C18.4606 107.985 18.6514 107.801 18.8522 107.627C18.9258 107.563 19.0027 107.5 19.0764 107.439C19.0998 107.426 19.2537 107.302 19.3006 107.272C19.8661 106.871 20.1338 106.151 19.7624 105.512C19.4344 104.953 18.5744 104.649 18.0022 105.05C16.1416 106.369 14.7595 108.239 13.5716 110.16C12.0925 112.549 10.8945 115.106 9.79018 117.686C7.49457 123.06 5.63733 128.599 3.77006 134.13C3.38188 135.278 2.9937 136.426 2.58544 137.567C2.42147 138.022 2.2575 138.477 2.08014 138.926C2.01321 139.103 1.93959 139.277 1.86932 139.451C1.86597 139.461 1.86263 139.464 1.85928 139.474C1.82247 139.558 1.78566 139.638 1.74885 139.722C1.45772 140.351 1.57149 141.107 2.21065 141.482C2.76615 141.807 3.67636 141.653 3.97084 141.02C4.71039 139.417 5.26254 137.728 5.82808 136.058C6.66467 133.605 7.47784 131.142 8.32782 128.692V128.699Z" fill="white"/>
<path d="M111.52 99.7863C110.215 98.4277 108.886 97.3401 107.551 96.6073C104.907 95.1583 103.616 107.038 103.656 111.696C103.666 112.847 104.482 117.201 105.657 122.505C107.899 132.644 111.44 146.264 113.109 147.68C113.852 148.309 115.489 148.319 117.456 147.917C117.704 146.502 117.948 145.391 118.075 144.996C118.524 143.59 123.771 141.071 125.394 142.556C125.668 142.807 126.144 143.293 126.736 143.922C128.245 142.844 129.329 141.68 129.564 140.579C130.347 136.888 121.609 110.264 111.523 99.783L111.52 99.7863Z" fill="#C4DBEA"/>
<path d="M129.888 156.243C130.206 156.805 131.049 158.073 131.869 157.431C132.732 156.755 129.112 148.7 127.211 144.912C126.823 144.139 126.505 143.54 126.314 143.219C125.18 141.335 119.434 142.258 118.604 143.48C118.373 143.821 117.821 144.818 117.182 146.107C115.542 149.406 113.317 154.617 114.351 155.671C115.79 157.133 118.771 152.023 118.771 152.023C118.771 152.023 125.802 162.651 126.773 162.176C127.743 161.701 126.625 159.706 126.625 159.706C126.625 159.706 128.483 162.732 129.379 162.367C130.276 162.002 128.432 158.746 128.432 158.746C128.432 158.746 130.29 161.202 131.15 160.653C131.882 160.185 130.353 157.14 129.885 156.246L129.888 156.243Z" fill="#27224F"/>
<path d="M110.315 105.204C110.379 105.251 110.446 105.298 110.509 105.345C110.539 105.371 110.603 105.422 110.64 105.452C110.82 105.612 111.005 105.77 111.179 105.94C111.54 106.292 111.878 106.67 112.199 107.058C112.48 107.399 112.748 107.761 113.079 108.243C113.424 108.741 113.749 109.253 114.06 109.775C115.489 112.155 116.67 114.688 117.744 117.244C119.933 122.445 121.696 127.809 123.5 133.153C124.159 135.101 124.782 137.088 125.645 138.959C125.936 139.588 126.846 139.745 127.405 139.421C128.051 139.043 128.158 138.296 127.867 137.661C127.823 137.57 127.783 137.477 127.743 137.386C127.79 137.487 127.639 137.132 127.596 137.028C127.442 136.64 127.298 136.252 127.154 135.86C126.799 134.886 126.465 133.909 126.133 132.929C125.27 130.382 124.423 127.829 123.533 125.292C121.579 119.724 119.521 114.059 116.546 108.939C115.254 106.717 113.735 104.491 111.61 102.985C111.045 102.584 110.181 102.885 109.85 103.447C109.472 104.09 109.743 104.803 110.312 105.207L110.315 105.204Z" fill="white"/>
<path d="M123.282 139.126C123.594 139.126 123.908 139.15 124.216 139.197C124.357 139.22 124.487 139.123 124.511 138.982C124.534 138.842 124.437 138.711 124.296 138.688C123.958 138.634 123.62 138.611 123.282 138.611C121.512 138.611 119.775 139.294 118.316 140.274C118.065 140.441 117.825 140.622 117.587 140.806C116.586 138.213 113.822 132.142 111.148 126.116C109.783 123.037 108.441 119.972 107.377 117.405C106.313 114.838 105.527 112.757 105.272 111.679C105.239 111.542 105.102 111.455 104.964 111.489C104.827 111.522 104.74 111.659 104.774 111.796C105.045 112.944 105.838 115.019 106.905 117.599C108.505 121.464 110.724 126.43 112.718 130.894C114.706 135.342 116.469 139.294 117.169 141.141C115.941 142.158 114.87 143.349 113.819 144.524C113.725 144.631 113.732 144.792 113.839 144.885C113.946 144.979 114.107 144.972 114.204 144.865C115.569 143.339 116.944 141.817 118.608 140.699C120.003 139.762 121.653 139.123 123.289 139.123L123.282 139.126Z" fill="#27224F"/>
<path d="M79.5219 116.599C78.4008 114.52 77.9624 112.078 76.4833 110.501C73.6657 107.5 68.6963 106.161 59.9891 106.161C53.3097 106.161 48.1061 106.904 45.342 108.986C42.6147 111.04 41.5372 114.865 40.6169 117.264C38.5355 122.696 43.3509 126.323 59.7481 126.323C76.1454 126.323 82.8716 122.796 79.5219 116.595V116.599Z" fill="#27224F"/>
<path d="M78.0495 115.735C77.0523 114.005 76.6641 111.967 75.349 110.655C72.8426 108.156 68.4187 107.038 60.6718 107.038C54.7287 107.038 50.1006 107.657 47.641 109.39C45.2149 111.104 44.2545 114.293 43.438 116.291C41.5874 120.818 45.8708 123.84 60.461 123.84C75.0512 123.84 81.0345 120.902 78.0529 115.732L78.0495 115.735Z" fill="#48BBC9"/>
<path d="M56.8536 107.925C48.5847 107.925 46.8881 111.499 44.7866 115.314C42.9361 118.67 46.4899 121.344 56.7064 121.344C66.9229 121.344 71.6279 118.68 69.0244 114.868C66.1064 110.598 65.1259 107.925 56.857 107.925H56.8536Z" fill="#7AC8D3"/>
<g style="mix-blend-mode:hard-light">
<path d="M82.4031 36.5433C82.5871 36.386 82.7645 36.2187 82.9352 36.0446C84.3574 34.5823 85.2341 32.5611 85.2341 30.3257C85.2341 25.8616 81.7204 22.2409 77.3869 22.2409H67.7995V25.9788H69.5363V34.6693H52.5501V32.8957V22.2409H45.3989C45.168 22.2208 44.9371 22.2107 44.7028 22.2107C44.4686 22.2107 44.2343 22.2208 44.0034 22.2409C39.9978 22.5956 36.8556 25.9587 36.8556 30.058V37.9052V47.1011H40.4864V38.4105H48.9226V50.8423H52.5534V38.4105H69.5396V47.1011H67.8029V50.839H77.3902C79.5587 50.839 81.5196 49.9354 82.9385 48.4731C84.3607 47.0107 85.2375 44.9895 85.2375 42.7541C85.2375 40.2544 84.1365 38.0224 82.4064 36.5399L82.4031 36.5433ZM44.0001 25.8984C44.2277 25.8616 48.9193 25.6006 48.9193 25.8416V34.6726H40.4831V32.8991V30.0613C40.4831 27.9732 42.009 26.2331 44.0001 25.9018V25.8984ZM73.1637 25.9821H77.3835C79.7093 25.9821 81.6033 27.933 81.6033 30.329C81.6033 32.725 79.7093 34.6726 77.3835 34.6726H73.1637V25.9821ZM77.3835 47.1044H73.1637V38.4139H77.3835C79.7093 38.4139 81.6033 40.3648 81.6033 42.7608C81.6033 45.1568 79.7093 47.1044 77.3835 47.1044Z" fill="#DBEBF4"/>
<path d="M59.4638 66.336C55.9869 66.336 52.9016 65.814 50.3148 65.1045C42.22 62.8892 37.2874 58.5122 37.0799 58.3281C36.3939 57.7124 36.337 56.6583 36.9528 55.9723C37.5685 55.2863 38.6226 55.2294 39.3086 55.8451C39.3822 55.9087 43.9801 59.9478 51.3355 61.9255C61.1504 64.5624 71.0188 62.4776 80.6731 55.7213C81.4261 55.1926 82.4701 55.3766 82.9989 56.1329C83.5276 56.8892 83.3435 57.9299 82.5872 58.4586C73.9904 64.4721 66.0294 66.3394 59.4605 66.3394L59.4638 66.336Z" fill="#DBEBF4"/>
</g>
</svg>
