<svg width="430" height="83" viewBox="0 0 430 83" fill="none" xmlns="http://www.w3.org/2000/svg">
<path d="M-107.582 15.4065L-85.888 10.8721C-51.687 3.72338 -16.2873 4.68096 17.4773 13.6682L34.1426 18.104C64.2352 26.1139 95.9841 25.4103 125.692 16.0753C155.842 6.6016 188.083 6.02055 218.555 14.4017L238.981 20.02C263.89 26.8712 289.753 29.5913 315.543 28.0719L348.48 26.1315C365.34 25.1382 382.07 22.5621 398.449 18.4371C442.405 7.3667 488.443 7.56216 532.303 19.0054L537.582 20.3826V69.2174L-107.582 71.227V15.4065Z" fill="url(#paint0_linear_100_1788)" fill-opacity="0.5"/>
<path d="M-107.582 33.1662L-63.6716 22.071C-36.9123 15.3094 -8.77087 16.4072 17.3803 25.2328L30.76 29.7483C54.3961 37.7251 80.0987 37.0354 103.273 27.8026C126.786 18.435 152.889 17.8661 176.787 26.2005L185.047 29.0812C209.201 37.5046 235.522 37.3307 259.562 28.589C280.588 20.9436 303.432 19.8272 325.103 25.3861L337.654 28.6056C363.949 35.3509 391.694 33.719 417.018 23.9378C439.599 15.2156 464.163 12.9531 487.958 17.4038L537.582 26.6856V83H-107.582V33.1662Z" fill="url(#paint1_linear_100_1788)"/>
<path d="M-107.582 16.4823L-63.6647 25.6472C-36.2281 31.3729 -7.86911 31.0058 19.4101 24.5719C42.0858 19.2237 65.5471 18.0586 88.6412 21.1337L101.815 22.8879C124.598 25.9215 147.687 25.8529 170.451 22.6839L177.944 21.6408C202.458 18.2283 227.38 19.1439 251.577 24.346C281.207 30.7162 311.86 30.6455 341.461 24.1387L342.32 23.9499C364.822 19.0035 387.971 17.6959 410.887 20.0768L425.262 21.5703C446.173 23.7429 467.252 23.7489 488.164 21.5882L537.582 16.4823V83H-107.582V16.4823Z" fill="url(#paint2_linear_100_1788)" fill-opacity="0.8"/>
<defs>
<linearGradient id="paint0_linear_100_1788" x1="-141.431" y1="35.0553" x2="675.895" y2="35.0553" gradientUnits="userSpaceOnUse">
<stop stop-color="#F5CF31"/>
<stop offset="0.5" stop-color="#897318"/>
<stop offset="1" stop-color="#CCAC2A"/>
</linearGradient>
<linearGradient id="paint1_linear_100_1788" x1="-107.582" y1="46.7979" x2="537.582" y2="46.7979" gradientUnits="userSpaceOnUse">
<stop stop-color="#F5CF31"/>
<stop offset="0.5" stop-color="#CCAC2A"/>
<stop offset="1" stop-color="#F5CF31"/>
</linearGradient>
<linearGradient id="paint2_linear_100_1788" x1="-107.582" y1="49.7412" x2="537.582" y2="49.7412" gradientUnits="userSpaceOnUse">
<stop stop-color="#F5CF31"/>
<stop offset="0.5" stop-color="#A48A21"/>
<stop offset="1" stop-color="#FFE475"/>
</linearGradient>
</defs>
</svg>
