<svg width="152" height="170" viewBox="0 0 152 170" fill="none" xmlns="http://www.w3.org/2000/svg">
<g clip-path="url(#clip0_171_894)">
<path d="M242 121.279C242 54.4526 187.826 0.279053 121 0.279053C54.1735 0.279053 0 54.4526 0 121.279C0 188.105 54.1735 242.279 121 242.279C187.826 242.279 242 188.105 242 121.279Z" fill="#F5CF31"/>
<g filter="url(#filter0_d_171_894)">
<mask id="mask0_171_894" style="mask-type:luminance" maskUnits="userSpaceOnUse" x="7" y="8" width="228" height="227">
<path d="M234.267 121.279C234.267 58.7235 183.556 8.01215 121 8.01215C58.4444 8.01215 7.73309 58.7235 7.73309 121.279C7.73309 183.835 58.4444 234.546 121 234.546C183.556 234.546 234.267 183.835 234.267 121.279Z" fill="white"/>
</mask>
<g mask="url(#mask0_171_894)">
<path d="M234.267 121.279C234.267 58.7235 183.556 8.01215 121 8.01215C58.4444 8.01215 7.73309 58.7235 7.73309 121.279C7.73309 183.835 58.4444 234.546 121 234.546C183.556 234.546 234.267 183.835 234.267 121.279Z" fill="white"/>
<path d="M272.165 50.7811L121.632 121.45L184.619 -53.006L272.165 50.7811Z" fill="#1C2737"/>
<path d="M-28.752 193.19L121.781 122.522L58.7937 296.977L-28.752 193.19Z" fill="#1C2737"/>
<path d="M50.916 -29.2906L121.585 121.242L-52.8711 58.2549L50.916 -29.2906Z" fill="#1C2737"/>
<path d="M192.497 273.262L121.829 122.73L296.284 185.716L192.497 273.262Z" fill="#1C2737"/>
<path d="M277.919 178.272L121.506 121.8L289.403 42.9796L277.919 178.272Z" fill="#F8F8F8"/>
<path d="M-34.5056 65.6987L121.907 122.171L-45.99 200.992L-34.5056 65.6987Z" fill="#F8F8F8"/>
<path d="M178.407 -35.0444L121.935 121.368L43.1143 -46.5289L178.407 -35.0444Z" fill="#F8F8F8"/>
<path d="M65.0061 279.016L121.479 122.603L200.299 290.5L65.0061 279.016Z" fill="#F8F8F8"/>
<g filter="url(#filter1_d_171_894)">
<path d="M136.466 121.279C136.466 112.737 129.542 105.813 121 105.813C112.458 105.813 105.534 112.737 105.534 121.279C105.534 129.821 112.458 136.745 121 136.745C129.542 136.745 136.466 129.821 136.466 121.279Z" fill="#F5CF31"/>
</g>
<g filter="url(#filter2_d_171_894)">
<path d="M130.553 121.279C130.553 116.003 126.276 111.726 121 111.726C115.724 111.726 111.447 116.003 111.447 121.279C111.447 126.555 115.724 130.832 121 130.832C126.276 130.832 130.553 126.555 130.553 121.279Z" fill="#F5CF31"/>
</g>
<path d="M123.732 32.8599C122.668 35.5381 118.877 35.5381 117.814 32.8599L107.732 7.48189C106.901 5.39132 108.441 3.12207 110.691 3.12207L130.854 3.12207C133.104 3.12207 134.644 5.39128 133.813 7.48189L123.732 32.8599Z" fill="#F5CF31"/>
</g>
</g>
<path d="M125.756 92.9882H117.836L117.817 94.755L114.303 94.7154V89.5743H125.756V92.9882ZM120.933 74.3797C121.701 74.3797 122.395 74.5057 123.017 74.7568C123.639 74.9952 124.168 75.3391 124.605 75.7894C125.042 76.2261 125.379 76.7551 125.618 77.377C125.842 77.9992 125.955 78.6939 125.955 79.4613C125.955 80.2291 125.842 80.9237 125.618 81.5455C125.379 82.1674 125.042 82.7037 124.605 83.1536C124.168 83.5903 123.639 83.9342 123.017 84.1857C122.395 84.4236 121.701 84.5428 120.933 84.5428H114.303V81.1089H120.933C121.436 81.1089 121.839 80.9633 122.144 80.6722C122.448 80.3678 122.6 79.9644 122.6 79.4613C122.6 78.9586 122.448 78.5615 122.144 78.2704C121.839 77.966 121.436 77.8137 120.933 77.8137H114.303V74.3797H120.933ZM118.035 63.688C117.916 64.0852 117.81 64.4886 117.718 64.899C117.612 65.3093 117.526 65.6927 117.459 66.0503C117.38 66.4074 117.32 66.7385 117.281 67.0428C117.228 67.334 117.201 67.5719 117.201 67.7575C117.201 68.0218 117.228 68.2337 117.281 68.3925C117.32 68.5512 117.42 68.6372 117.578 68.6504C117.763 68.6636 117.896 68.5512 117.975 68.3129C118.055 68.0618 118.127 67.7042 118.194 67.2412C118.287 66.5793 118.405 65.9775 118.551 65.4348C118.683 64.8789 118.882 64.4027 119.146 64.0056C119.398 63.6089 119.735 63.3041 120.159 63.0926C120.582 62.8674 121.131 62.7551 121.807 62.7551C122.442 62.7551 123.004 62.8674 123.494 63.0926C123.97 63.3178 124.373 63.6353 124.705 64.0456C125.035 64.4422 125.287 64.9253 125.459 65.4944C125.631 66.0503 125.717 66.6657 125.717 67.3403C125.717 68.0154 125.604 68.816 125.379 69.7421C125.141 70.6551 124.83 71.6081 124.446 72.6006L121.131 71.6081C121.264 71.2906 121.416 70.9198 121.588 70.4963C121.747 70.0596 121.899 69.6166 122.044 69.1667C122.19 68.7036 122.316 68.2533 122.422 67.8166C122.514 67.3667 122.561 66.9632 122.561 66.6061C122.561 66.1162 122.408 65.8715 122.104 65.8715C121.985 65.8715 121.886 65.9379 121.807 66.0698C121.714 66.2022 121.641 66.3678 121.588 66.5661C121.522 66.7649 121.462 66.9832 121.409 67.2211C121.357 67.4595 121.31 67.6847 121.271 67.8962C121.178 68.4521 121.059 68.9747 120.913 69.4642C120.768 69.9541 120.562 70.384 120.298 70.7547C120.033 71.1118 119.689 71.3966 119.266 71.6081C118.842 71.8196 118.313 71.9256 117.678 71.9256C117.095 71.9256 116.573 71.8196 116.11 71.6081C115.633 71.3966 115.236 71.0986 114.919 70.7147C114.588 70.3312 114.336 69.8745 114.164 69.345C113.992 68.8028 113.906 68.2005 113.906 67.5391C113.906 67.2211 113.933 66.8641 113.986 66.4669C114.038 66.0698 114.111 65.6663 114.204 65.256C114.297 64.8325 114.402 64.4095 114.521 63.986C114.641 63.5493 114.773 63.1322 114.919 62.7355L118.035 63.688ZM114.204 56.6709C114.204 55.7976 114.343 54.997 114.621 54.2691C114.885 53.5281 115.269 52.8995 115.772 52.3832C116.262 51.8541 116.864 51.4438 117.578 51.1527C118.293 50.8616 119.094 50.716 119.98 50.716C120.88 50.716 121.694 50.8616 122.422 51.1527C123.136 51.4438 123.752 51.8473 124.268 52.3636C124.771 52.8795 125.161 53.4949 125.439 54.2096C125.704 54.9242 125.836 55.7048 125.836 56.5518V60.9387H114.204V56.6709ZM122.481 56.5518C122.481 55.8635 122.263 55.3013 121.826 54.8646C121.376 54.4279 120.761 54.2096 119.98 54.2096C119.226 54.2096 118.637 54.4343 118.214 54.8842C117.79 55.3345 117.578 55.9299 117.578 56.6709V57.5043H122.462C122.475 57.3324 122.481 57.1672 122.481 57.0085C122.481 56.8493 122.481 56.6973 122.481 56.5518ZM125.756 43.0435V46.4774H117.678V49.3159H114.303V40.1256H117.678V43.0435H125.756Z" fill="#1C2737"/>
<path d="M116.699 151.844H124.619L124.638 150.078L128.152 150.117V155.258H116.699V151.844ZM121.522 170.453C120.754 170.453 120.06 170.327 119.437 170.076C118.816 169.837 118.287 169.493 117.85 169.043C117.413 168.606 117.076 168.077 116.837 167.456C116.613 166.833 116.5 166.139 116.5 165.371C116.5 164.603 116.613 163.909 116.837 163.287C117.076 162.665 117.413 162.129 117.85 161.679C118.287 161.242 118.816 160.898 119.437 160.647C120.06 160.409 120.754 160.29 121.522 160.29H128.152V163.724H121.522C121.019 163.724 120.616 163.869 120.311 164.16C120.007 164.465 119.855 164.868 119.855 165.371C119.855 165.874 120.007 166.271 120.311 166.562C120.616 166.866 121.019 167.019 121.522 167.019H128.152V170.453H121.522ZM124.42 181.145C124.539 180.747 124.645 180.344 124.737 179.934C124.843 179.523 124.929 179.14 124.996 178.782C125.075 178.425 125.134 178.094 125.174 177.79C125.227 177.499 125.254 177.261 125.254 177.075C125.254 176.811 125.227 176.599 125.174 176.44C125.134 176.281 125.035 176.195 124.877 176.182C124.691 176.169 124.559 176.281 124.479 176.52C124.4 176.771 124.327 177.128 124.261 177.591C124.168 178.253 124.05 178.855 123.904 179.398C123.772 179.954 123.573 180.43 123.309 180.827C123.057 181.224 122.719 181.528 122.296 181.74C121.872 181.965 121.323 182.077 120.648 182.077C120.013 182.077 119.451 181.965 118.961 181.74C118.485 181.515 118.081 181.197 117.75 180.787C117.42 180.39 117.168 179.907 116.996 179.338C116.824 178.782 116.738 178.167 116.738 177.492C116.738 176.817 116.851 176.017 117.076 175.09C117.314 174.177 117.625 173.224 118.009 172.232L121.323 173.224C121.191 173.542 121.039 173.913 120.867 174.336C120.708 174.773 120.556 175.216 120.41 175.666C120.265 176.129 120.139 176.579 120.033 177.016C119.941 177.466 119.894 177.869 119.894 178.226C119.894 178.716 120.047 178.961 120.351 178.961C120.47 178.961 120.569 178.895 120.648 178.763C120.741 178.63 120.814 178.465 120.867 178.266C120.933 178.068 120.993 177.849 121.045 177.611C121.098 177.373 121.145 177.148 121.184 176.936C121.277 176.38 121.396 175.858 121.542 175.368C121.687 174.878 121.892 174.449 122.157 174.078C122.422 173.721 122.766 173.436 123.189 173.224C123.613 173.013 124.142 172.907 124.777 172.907C125.36 172.907 125.882 173.013 126.345 173.224C126.822 173.436 127.219 173.734 127.536 174.118C127.867 174.501 128.119 174.958 128.29 175.488C128.462 176.03 128.549 176.632 128.549 177.293C128.549 177.611 128.522 177.968 128.469 178.366C128.416 178.763 128.344 179.166 128.251 179.576C128.158 180 128.053 180.423 127.933 180.847C127.814 181.283 127.682 181.7 127.536 182.097L124.42 181.145ZM128.251 188.162C128.251 189.035 128.112 189.836 127.834 190.563C127.569 191.304 127.186 191.933 126.683 192.449C126.193 192.978 125.591 193.389 124.877 193.68C124.162 193.971 123.361 194.117 122.475 194.117C121.575 194.117 120.761 193.971 120.033 193.68C119.319 193.389 118.703 192.985 118.187 192.469C117.684 191.953 117.294 191.338 117.016 190.623C116.751 189.908 116.619 189.128 116.619 188.281V183.894H128.251V188.162ZM119.974 188.281C119.974 188.969 120.192 189.531 120.629 189.968C121.079 190.405 121.694 190.623 122.475 190.623C123.229 190.623 123.818 190.398 124.241 189.948C124.665 189.498 124.877 188.903 124.877 188.162V187.328H119.993C119.98 187.5 119.974 187.665 119.974 187.824C119.974 187.983 119.974 188.135 119.974 188.281ZM116.699 201.789V198.355H124.777V195.517H128.152V204.707H124.777V201.789H116.699Z" fill="#1C2737"/>
<path d="M146.862 103.346L141.262 97.7454L139.999 98.9805L137.542 96.4681L141.178 92.8331L149.276 100.931L146.862 103.346ZM146.22 87.5096C146.791 86.9387 147.409 86.527 148.073 86.2746C148.738 86.003 149.416 85.8861 150.108 85.9234C150.81 85.9516 151.507 86.134 152.2 86.4711C152.892 86.8077 153.556 87.2944 154.193 87.9308C154.82 88.5576 155.302 89.2172 155.638 89.9096C155.975 90.6023 156.158 91.2992 156.186 92.0011C156.223 92.6935 156.111 93.3767 155.849 94.0504C155.587 94.7054 155.171 95.3182 154.6 95.889C154.029 96.4599 153.411 96.8807 152.747 97.1523C152.082 97.4047 151.404 97.5125 150.712 97.4752C150.02 97.4375 149.322 97.2551 148.62 96.9276C147.928 96.5909 147.268 96.1088 146.642 95.4819C146.005 94.8455 145.518 94.1814 145.182 93.4891C144.854 92.7872 144.672 92.0898 144.634 91.3975C144.597 90.7052 144.709 90.0315 144.971 89.3764C145.233 88.7027 145.649 88.0805 146.22 87.5096ZM152.228 93.5168C152.621 93.1238 152.77 92.6375 152.677 92.0571C152.593 91.4675 152.284 90.9062 151.75 90.3731C151.208 89.8304 150.646 89.5215 150.066 89.4465C149.486 89.3532 149 89.5029 148.607 89.8959C148.204 90.298 148.05 90.7893 148.143 91.3693C148.237 91.9311 148.555 92.4829 149.098 93.0255C149.631 93.5591 150.183 93.8771 150.754 93.9803C151.334 94.0736 151.825 93.9194 152.228 93.5168ZM165.279 78.1075C165.822 78.6502 166.224 79.2302 166.486 79.8479C166.758 80.4561 166.889 81.0734 166.879 81.7007C166.879 82.3179 166.744 82.9311 166.472 83.5393C166.192 84.1379 165.78 84.7088 165.237 85.2515C164.695 85.7942 164.124 86.2059 163.525 86.4865C162.917 86.7581 162.299 86.8987 161.672 86.9078C161.055 86.9078 160.437 86.7767 159.819 86.5147C159.211 86.2436 158.636 85.8365 158.093 85.2938L153.405 80.6057L155.833 78.1776L160.521 82.8656C160.877 83.2209 161.265 83.4038 161.686 83.4129C162.116 83.4129 162.509 83.235 162.865 82.8797C163.221 82.524 163.394 82.1355 163.385 81.7148C163.385 81.284 163.207 80.891 162.851 80.5357L158.163 75.8476L160.591 73.4194L165.279 78.1075ZM170.79 68.498C170.425 68.6945 170.065 68.9051 169.71 69.1294C169.345 69.3446 169.012 69.5552 168.713 69.7612C168.404 69.9577 168.128 70.1493 167.885 70.3367C167.641 70.505 167.454 70.6546 167.323 70.7856C167.136 70.9731 167.005 71.1414 166.93 71.291C166.846 71.4316 166.856 71.5626 166.959 71.684C167.08 71.8242 167.253 71.8383 167.478 71.7259C167.712 71.6044 168.016 71.4034 168.39 71.1227C168.924 70.7201 169.434 70.3785 169.92 70.0978C170.407 69.7985 170.884 69.602 171.352 69.5083C171.81 69.4055 172.264 69.4287 172.713 69.5788C173.172 69.7189 173.64 70.0278 174.117 70.505C174.566 70.9539 174.884 71.4316 175.071 71.9365C175.249 72.4328 175.31 72.9427 175.253 73.4667C175.207 73.9812 175.043 74.5007 174.763 75.0247C174.491 75.5392 174.117 76.035 173.64 76.5122C173.162 76.9894 172.517 77.4761 171.703 77.972C170.888 78.4491 169.995 78.9031 169.022 79.3334L167.379 76.288C167.698 76.1569 168.067 76.0023 168.488 75.8244C168.91 75.6279 169.33 75.4223 169.752 75.2071C170.182 74.9824 170.589 74.7532 170.973 74.5194C171.356 74.2664 171.674 74.014 171.927 73.7615C172.274 73.4149 172.339 73.1342 172.124 72.9191C172.04 72.8349 171.922 72.8117 171.773 72.849C171.614 72.8772 171.445 72.9427 171.267 73.0455C171.08 73.1392 170.884 73.2511 170.678 73.3821C170.472 73.5131 170.28 73.6396 170.102 73.7615C169.644 74.089 169.19 74.3742 168.741 74.6176C168.292 74.861 167.843 75.0197 167.394 75.0948C166.954 75.1603 166.509 75.118 166.06 74.9683C165.611 74.8187 165.162 74.5194 164.713 74.0699C164.301 73.6583 164.006 73.2138 163.829 72.7367C163.642 72.2499 163.571 71.7586 163.618 71.2628C163.655 70.7574 163.8 70.2571 164.053 69.7612C164.315 69.2559 164.68 68.7691 165.148 68.3015C165.372 68.0768 165.644 67.843 165.962 67.5996C166.28 67.3562 166.617 67.1224 166.973 66.8977C167.338 66.6639 167.712 66.4392 168.095 66.224C168.488 65.9993 168.877 65.7983 169.26 65.6204L170.79 68.498ZM173.043 60.8273C173.661 60.2095 174.325 59.7414 175.037 59.4235C175.747 59.0864 176.463 58.9135 177.184 58.904C177.905 58.8762 178.62 59.0118 179.332 59.3111C180.043 59.6104 180.712 60.074 181.339 60.7008C181.975 61.3372 182.448 62.0154 182.756 62.736C183.056 63.4469 183.205 64.1675 183.205 64.8976C183.196 65.6181 183.037 66.3291 182.728 67.031C182.41 67.7233 181.951 68.3688 181.353 68.9679L178.251 72.0698L170.025 63.8445L173.043 60.8273ZM178.98 66.5957C179.467 66.1094 179.71 65.5572 179.71 64.9394C179.701 64.3126 179.42 63.7231 178.868 63.1708C178.335 62.6377 177.759 62.3802 177.142 62.3989C176.524 62.418 175.954 62.6891 175.43 63.2131L174.84 63.8027L178.293 67.2553C178.424 67.1434 178.546 67.031 178.658 66.9186C178.77 66.8063 178.878 66.6985 178.98 66.5957ZM190.848 59.3598L188.42 61.788L182.707 56.0755L180.7 58.0825L178.314 55.6966L184.813 49.1981L187.199 51.5839L185.135 53.6473L190.848 59.3598Z" fill="#F8F8F8"/>
<path d="M62.2531 192.959L56.653 187.358L55.3898 188.593L52.9334 186.081L56.5689 182.446L64.6672 190.544L62.2531 192.959ZM61.6113 177.122C62.1822 176.551 62.7999 176.14 63.4641 175.887C64.1286 175.616 64.8069 175.499 65.4992 175.536C66.2011 175.564 66.898 175.747 67.5908 176.084C68.2831 176.42 68.9473 176.907 69.5836 177.544C70.2105 178.17 70.6927 178.83 71.0293 179.522C71.3664 180.215 71.5488 180.912 71.577 181.614C71.6143 182.306 71.5019 182.99 71.2399 183.663C70.9779 184.318 70.5617 184.931 69.9908 185.502C69.4199 186.073 68.8022 186.493 68.138 186.765C67.4734 187.018 66.7952 187.125 66.1029 187.088C65.4105 187.05 64.7132 186.868 64.0113 186.54C63.3189 186.204 62.6594 185.722 62.0325 185.095C61.3961 184.458 60.9094 183.794 60.5728 183.102C60.2453 182.4 60.0629 181.703 60.0251 181.01C59.9878 180.318 60.1002 179.644 60.3622 178.989C60.6242 178.316 61.0404 177.693 61.6113 177.122ZM67.6185 183.13C68.0116 182.737 68.1612 182.25 68.068 181.67C67.9838 181.08 67.6749 180.519 67.1414 179.986C66.5987 179.443 66.0373 179.134 65.4574 179.059C64.8769 178.966 64.3907 179.116 63.9976 179.509C63.5951 179.911 63.4409 180.402 63.5341 180.982C63.6278 181.544 63.9458 182.096 64.4889 182.638C65.022 183.172 65.5743 183.49 66.1447 183.593C66.7251 183.686 67.2164 183.532 67.6185 183.13ZM80.6702 167.72C81.2128 168.263 81.6154 168.843 81.8774 169.461C82.1485 170.069 82.2795 170.686 82.2705 171.313C82.2705 171.931 82.1349 172.544 81.8633 173.152C81.5827 173.751 81.171 174.322 80.6283 174.864C80.0856 175.407 79.5147 175.819 78.9157 176.099C78.3075 176.371 77.6902 176.511 77.0629 176.521C76.4456 176.521 75.8279 176.39 75.2101 176.128C74.602 175.856 74.0265 175.449 73.4839 174.907L68.7958 170.219L71.224 167.79L75.912 172.478C76.2678 172.834 76.6562 173.017 77.077 173.026C77.5073 173.026 77.9004 172.848 78.2561 172.493C78.6118 172.137 78.7847 171.748 78.7756 171.328C78.7756 170.897 78.5977 170.504 78.242 170.148L73.5539 165.46L75.9821 163.032L80.6702 167.72ZM86.1811 158.111C85.8163 158.307 85.456 158.518 85.1008 158.742C84.7355 158.957 84.4034 159.168 84.1041 159.374C83.7952 159.571 83.5191 159.762 83.2758 159.949C83.0324 160.118 82.8454 160.267 82.7144 160.398C82.5275 160.586 82.3965 160.754 82.3214 160.904C82.2372 161.044 82.2468 161.175 82.3496 161.297C82.4711 161.437 82.6444 161.451 82.8686 161.339C83.1029 161.217 83.4068 161.016 83.7811 160.736C84.3147 160.333 84.8246 159.991 85.3109 159.711C85.7976 159.411 86.2748 159.215 86.7429 159.121C87.2014 159.018 87.655 159.042 88.1044 159.192C88.5629 159.332 89.0305 159.641 89.5077 160.118C89.9571 160.567 90.2751 161.044 90.4621 161.549C90.6399 162.046 90.7009 162.556 90.6445 163.08C90.5981 163.594 90.4343 164.113 90.1536 164.638C89.8821 165.152 89.5077 165.648 89.0305 166.125C88.5534 166.602 87.9079 167.089 87.0936 167.585C86.2794 168.062 85.386 168.516 84.413 168.946L82.7704 165.901C83.0888 165.77 83.4582 165.615 83.8794 165.437C84.3006 165.241 84.7214 165.035 85.1426 164.82C85.5729 164.595 85.9801 164.366 86.364 164.132C86.7475 163.879 87.0654 163.627 87.3183 163.374C87.6645 163.028 87.73 162.747 87.5149 162.532C87.4307 162.448 87.3133 162.425 87.1637 162.462C87.0049 162.49 86.8362 162.556 86.6583 162.658C86.4713 162.752 86.2748 162.864 86.0692 162.995C85.8632 163.126 85.6712 163.252 85.4933 163.374C85.0353 163.702 84.5813 163.987 84.1319 164.23C83.6829 164.474 83.2339 164.633 82.7845 164.708C82.3451 164.773 81.9002 164.731 81.4512 164.581C81.0022 164.431 80.5528 164.132 80.1038 163.683C79.6922 163.271 79.3974 162.827 79.2195 162.349C79.0326 161.863 78.9621 161.371 79.0089 160.876C79.0462 160.37 79.1913 159.87 79.4442 159.374C79.7063 158.869 80.0711 158.382 80.5387 157.914C80.7634 157.69 81.035 157.456 81.3529 157.212C81.6709 156.969 82.008 156.735 82.3637 156.511C82.7285 156.277 83.1029 156.052 83.4864 155.837C83.8794 155.612 84.2679 155.411 84.6513 155.233L86.1811 158.111ZM88.4342 150.44C89.0519 149.822 89.716 149.354 90.4275 149.036C91.1385 148.699 91.8545 148.526 92.575 148.517C93.2956 148.489 94.0111 148.625 94.7225 148.924C95.4335 149.223 96.1027 149.687 96.7295 150.314C97.3659 150.95 97.8385 151.628 98.1469 152.349C98.4467 153.06 98.5964 153.78 98.5964 154.51C98.5868 155.231 98.4276 155.942 98.1192 156.644C97.8008 157.336 97.3422 157.982 96.7436 158.581L93.6417 161.683L85.4165 153.457L88.4342 150.44ZM94.3714 156.208C94.8581 155.722 95.1015 155.17 95.1015 154.552C95.0919 153.925 94.8112 153.336 94.259 152.784C93.7259 152.25 93.1505 151.993 92.5327 152.012C91.915 152.031 91.3445 152.302 90.8205 152.826L90.231 153.415L93.6836 156.868C93.8146 156.756 93.9365 156.644 94.0489 156.531C94.1608 156.419 94.2686 156.311 94.3714 156.208ZM106.239 148.973L103.811 151.401L98.0983 145.688L96.0913 147.695L93.705 145.309L100.204 138.811L102.59 141.197L100.526 143.26L106.239 148.973Z" fill="#F8F8F8"/>
<path d="M149.746 127.627V119.707L147.979 119.688L148.018 116.174H153.16V127.627H149.746ZM160.49 115.976C161.297 115.976 162.024 116.122 162.673 116.413C163.335 116.691 163.897 117.087 164.36 117.604C164.837 118.12 165.2 118.742 165.452 119.47C165.704 120.197 165.829 121.011 165.829 121.911C165.829 122.798 165.704 123.605 165.452 124.333C165.2 125.061 164.837 125.682 164.36 126.199C163.897 126.715 163.335 127.118 162.673 127.409C162.024 127.687 161.297 127.826 160.49 127.826C159.682 127.826 158.948 127.687 158.286 127.409C157.638 127.118 157.082 126.715 156.619 126.199C156.156 125.682 155.792 125.061 155.527 124.333C155.276 123.605 155.15 122.798 155.15 121.911C155.15 121.011 155.276 120.197 155.527 119.47C155.792 118.742 156.156 118.12 156.619 117.604C157.082 117.087 157.638 116.691 158.286 116.413C158.948 116.122 159.682 115.976 160.49 115.976ZM160.49 124.471C161.046 124.471 161.495 124.234 161.839 123.757C162.196 123.281 162.375 122.665 162.375 121.911C162.375 121.144 162.196 120.528 161.839 120.065C161.495 119.589 161.046 119.35 160.49 119.35C159.921 119.35 159.464 119.589 159.12 120.065C158.789 120.528 158.624 121.144 158.624 121.911C158.624 122.665 158.789 123.281 159.12 123.757C159.464 124.234 159.921 124.471 160.49 124.471ZM180.615 122.804C180.615 123.572 180.489 124.266 180.238 124.889C179.999 125.51 179.655 126.039 179.206 126.476C178.769 126.913 178.239 127.25 177.618 127.489C176.995 127.713 176.301 127.826 175.533 127.826C174.766 127.826 174.071 127.713 173.449 127.489C172.827 127.25 172.291 126.913 171.841 126.476C171.404 126.039 171.06 125.51 170.809 124.889C170.571 124.266 170.452 123.572 170.452 122.804V116.174H173.886V122.804C173.886 123.307 174.031 123.71 174.322 124.015C174.627 124.32 175.03 124.471 175.533 124.471C176.036 124.471 176.433 124.32 176.724 124.015C177.028 123.71 177.181 123.307 177.181 122.804V116.174H180.615V122.804ZM191.306 119.906C190.909 119.787 190.506 119.681 190.096 119.589C189.685 119.483 189.302 119.397 188.944 119.33C188.587 119.251 188.256 119.192 187.952 119.152C187.661 119.099 187.423 119.072 187.237 119.072C186.973 119.072 186.761 119.099 186.602 119.152C186.443 119.192 186.357 119.291 186.344 119.45C186.331 119.635 186.443 119.767 186.682 119.847C186.933 119.926 187.29 119.999 187.753 120.065C188.415 120.158 189.017 120.277 189.56 120.422C190.116 120.554 190.592 120.753 190.989 121.018C191.386 121.269 191.69 121.607 191.902 122.03C192.127 122.454 192.239 123.003 192.239 123.678C192.239 124.313 192.127 124.875 191.902 125.365C191.677 125.841 191.359 126.245 190.949 126.576C190.552 126.906 190.069 127.158 189.5 127.33C188.944 127.502 188.329 127.588 187.654 127.588C186.979 127.588 186.179 127.476 185.252 127.25C184.339 127.012 183.386 126.701 182.394 126.317L183.386 123.003C183.704 123.135 184.075 123.287 184.498 123.459C184.935 123.618 185.378 123.77 185.828 123.916C186.291 124.061 186.741 124.187 187.178 124.293C187.628 124.386 188.031 124.432 188.389 124.432C188.878 124.432 189.123 124.28 189.123 123.975C189.123 123.856 189.057 123.757 188.925 123.678C188.792 123.585 188.627 123.512 188.428 123.459C188.23 123.393 188.011 123.333 187.773 123.281C187.535 123.228 187.31 123.181 187.098 123.142C186.542 123.049 186.02 122.93 185.53 122.784C185.041 122.639 184.611 122.434 184.24 122.169C183.883 121.905 183.598 121.56 183.386 121.137C183.175 120.713 183.069 120.184 183.069 119.549C183.069 118.966 183.175 118.444 183.386 117.981C183.598 117.504 183.896 117.107 184.28 116.79C184.663 116.459 185.12 116.208 185.649 116.036C186.192 115.864 186.794 115.777 187.456 115.777C187.773 115.777 188.13 115.804 188.528 115.857C188.925 115.91 189.328 115.982 189.738 116.075C190.162 116.168 190.585 116.274 191.009 116.393C191.446 116.512 191.862 116.644 192.259 116.79L191.306 119.906ZM198.324 116.075C199.197 116.075 199.998 116.214 200.725 116.492C201.466 116.757 202.095 117.141 202.611 117.643C203.14 118.133 203.551 118.735 203.842 119.45C204.133 120.164 204.278 120.965 204.278 121.851C204.278 122.751 204.133 123.565 203.842 124.293C203.551 125.007 203.147 125.623 202.631 126.139C202.115 126.642 201.5 127.032 200.785 127.31C200.07 127.575 199.29 127.707 198.443 127.707H194.056V116.075H198.324ZM198.443 124.352C199.131 124.352 199.693 124.134 200.13 123.697C200.567 123.247 200.785 122.632 200.785 121.851C200.785 121.097 200.56 120.508 200.11 120.085C199.66 119.662 199.065 119.45 198.324 119.45H197.49V124.333C197.662 124.346 197.827 124.352 197.986 124.352C198.145 124.352 198.297 124.352 198.443 124.352ZM211.951 127.627H208.517V119.549H205.679V116.174H214.869V119.549H211.951V127.627Z" fill="#1C2737"/>
<path d="M30.1102 127.627V119.707L28.3436 119.688L28.3833 116.174H33.5244V127.627H30.1102ZM40.8542 115.976C41.6614 115.976 42.3893 116.122 43.0377 116.413C43.6993 116.691 44.2618 117.087 44.7249 117.604C45.2013 118.12 45.5651 118.742 45.8167 119.47C46.0682 120.197 46.1938 121.011 46.1938 121.911C46.1938 122.798 46.0682 123.605 45.8167 124.333C45.5651 125.061 45.2013 125.682 44.7249 126.199C44.2618 126.715 43.6993 127.118 43.0377 127.409C42.3893 127.687 41.6614 127.826 40.8542 127.826C40.047 127.826 39.3126 127.687 38.6509 127.409C38.0025 127.118 37.4467 126.715 36.9836 126.199C36.5204 125.682 36.1565 125.061 35.8918 124.333C35.6404 123.605 35.5147 122.798 35.5147 121.911C35.5147 121.011 35.6404 120.197 35.8918 119.47C36.1565 118.742 36.5204 118.12 36.9836 117.604C37.4467 117.087 38.0025 116.691 38.6509 116.413C39.3126 116.122 40.047 115.976 40.8542 115.976ZM40.8542 124.471C41.41 124.471 41.8599 124.234 42.204 123.757C42.5613 123.281 42.7399 122.665 42.7399 121.911C42.7399 121.144 42.5613 120.528 42.204 120.065C41.8599 119.589 41.41 119.35 40.8542 119.35C40.2852 119.35 39.8287 119.589 39.4846 120.065C39.1538 120.528 38.9883 121.144 38.9883 121.911C38.9883 122.665 39.1538 123.281 39.4846 123.757C39.8287 124.234 40.2852 124.471 40.8542 124.471ZM60.9795 122.804C60.9795 123.572 60.8535 124.266 60.6024 124.889C60.364 125.51 60.0201 126.039 59.5702 126.476C59.1335 126.913 58.604 127.25 57.9822 127.489C57.3599 127.713 56.6653 127.826 55.8979 127.826C55.1305 127.826 54.4354 127.713 53.8136 127.489C53.1918 127.25 52.6559 126.913 52.2056 126.476C51.7689 126.039 51.425 125.51 51.1734 124.889C50.9355 124.266 50.8164 123.572 50.8164 122.804V116.174H54.2503V122.804C54.2503 123.307 54.3959 123.71 54.687 124.015C54.9913 124.32 55.3948 124.471 55.8979 124.471C56.4006 124.471 56.7977 124.32 57.0888 124.015C57.3931 123.71 57.5455 123.307 57.5455 122.804V116.174H60.9795V122.804ZM71.6711 119.906C71.274 119.787 70.8705 119.681 70.4602 119.589C70.0499 119.483 69.6664 119.397 69.3089 119.33C68.9518 119.251 68.6211 119.192 68.3168 119.152C68.0257 119.099 67.7873 119.072 67.6022 119.072C67.3374 119.072 67.1254 119.099 66.9667 119.152C66.8079 119.192 66.722 119.291 66.7088 119.45C66.6956 119.635 66.8079 119.767 67.0463 119.847C67.2978 119.926 67.6549 119.999 68.118 120.065C68.7799 120.158 69.3817 120.277 69.9244 120.422C70.4802 120.554 70.9565 120.753 71.3536 121.018C71.7507 121.269 72.055 121.607 72.2666 122.03C72.4917 122.454 72.6041 123.003 72.6041 123.678C72.6041 124.313 72.4917 124.875 72.2666 125.365C72.0419 125.841 71.7239 126.245 71.314 126.576C70.9169 126.906 70.4338 127.158 69.8648 127.33C69.3089 127.502 68.6939 127.588 68.0188 127.588C67.3438 127.588 66.5432 127.476 65.617 127.25C64.7041 127.012 63.7511 126.701 62.7585 126.317L63.7511 123.003C64.0686 123.135 64.4393 123.287 64.8628 123.459C65.2995 123.618 65.7426 123.77 66.1925 123.916C66.656 124.061 67.1059 124.187 67.5426 124.293C67.9924 124.386 68.3959 124.432 68.7535 124.432C69.2429 124.432 69.4877 124.28 69.4877 123.975C69.4877 123.856 69.4217 123.757 69.2893 123.678C69.157 123.585 68.9914 123.512 68.7931 123.459C68.5943 123.393 68.3759 123.333 68.138 123.281C67.8997 123.228 67.6749 123.181 67.463 123.142C66.9071 123.049 66.3844 122.93 65.895 122.784C65.4055 122.639 64.9752 122.434 64.6049 122.169C64.2474 121.905 63.9631 121.56 63.7511 121.137C63.5396 120.713 63.4336 120.184 63.4336 119.549C63.4336 118.966 63.5396 118.444 63.7511 117.981C63.9631 117.504 64.2606 117.107 64.6445 116.79C65.0279 116.459 65.4847 116.208 66.0141 116.036C66.5564 115.864 67.1586 115.777 67.8205 115.777C68.138 115.777 68.4951 115.804 68.8922 115.857C69.2893 115.91 69.6928 115.982 70.1031 116.075C70.5266 116.168 70.9501 116.274 71.3736 116.393C71.8103 116.512 72.227 116.644 72.6241 116.79L71.6711 119.906ZM78.6882 116.075C79.5616 116.075 80.3622 116.214 81.09 116.492C81.831 116.757 82.4597 117.141 82.976 117.643C83.505 118.133 83.9153 118.735 84.2065 119.45C84.4976 120.164 84.6431 120.965 84.6431 121.851C84.6431 122.751 84.4976 123.565 84.2065 124.293C83.9153 125.007 83.5118 125.623 82.9955 126.139C82.4797 126.642 81.8642 127.032 81.1496 127.31C80.435 127.575 79.6544 127.707 78.8074 127.707H74.4209V116.075H78.6882ZM78.8074 124.352C79.4956 124.352 80.0579 124.134 80.4946 123.697C80.9313 123.247 81.1496 122.632 81.1496 121.851C81.1496 121.097 80.9249 120.508 80.475 120.085C80.0251 119.662 79.4292 119.45 78.6882 119.45H77.8549V124.333C78.0268 124.346 78.1919 124.352 78.3511 124.352C78.5099 124.352 78.6618 124.352 78.8074 124.352ZM92.3157 127.627H88.8818V119.549H86.0433V116.174H95.2334V119.549H92.3157V127.627Z" fill="#1C2737"/>
<path d="M42.9954 72.3964L46.9553 65.5376L45.4354 64.6369L47.2264 61.6142L51.6788 64.1848L45.9522 74.1036L42.9954 72.3964ZM58.1259 67.6778C58.8251 68.0813 59.3823 68.5712 59.7986 69.1476C60.2325 69.7194 60.5209 70.3444 60.6642 71.0226C60.8184 71.7081 60.823 72.4287 60.6765 73.1847C60.5305 73.9407 60.2325 74.7081 59.7826 75.4873C59.3391 76.2552 58.8269 76.8916 58.2451 77.3961C57.6633 77.901 57.0374 78.2576 56.3669 78.4664C55.7073 78.6816 55.0186 78.7498 54.2999 78.6711C53.5998 78.5874 52.8997 78.344 52.2006 77.9406C51.5019 77.5366 50.9351 77.0494 50.5011 76.4776C50.0849 75.9013 49.8056 75.274 49.6623 74.5953C49.5195 73.9171 49.5154 73.1965 49.65 72.4337C49.796 71.6777 50.0908 70.9157 50.5343 70.1479C50.9842 69.3687 51.5001 68.7268 52.0814 68.2223C52.6746 67.7242 53.301 67.3676 53.9601 67.152C54.6192 66.9368 55.2988 66.8709 55.9993 66.9546C56.7181 67.0333 57.4268 67.2744 58.1259 67.6778ZM53.8782 75.0352C54.3595 75.3131 54.868 75.3318 55.4044 75.0911C55.952 74.8573 56.4142 74.4138 56.7913 73.7606C57.1752 73.096 57.3281 72.4737 57.2503 71.8937C57.1907 71.3092 56.92 70.878 56.4388 70.6C55.9457 70.3157 55.4312 70.2939 54.8953 70.5341C54.3772 70.7697 53.9264 71.2201 53.5425 71.8846C53.1654 72.5379 53.0007 73.1538 53.0494 73.7315C53.109 74.316 53.3851 74.7509 53.8782 75.0352ZM72.1406 83.6539C71.7566 84.3185 71.3004 84.8576 70.7718 85.2702C70.2546 85.69 69.6919 85.9761 69.0842 86.1294C68.4874 86.2891 67.8605 86.3168 67.2028 86.2122C66.5514 86.0958 65.8936 85.846 65.229 85.4621C64.5644 85.0786 64.019 84.6338 63.5928 84.1279C63.1729 83.6107 62.8777 83.0503 62.7062 82.4471C62.5465 81.8508 62.5133 81.2203 62.6066 80.5562C62.7112 79.8984 62.9555 79.237 63.3389 78.5724L66.6542 72.8308L69.6278 74.548L66.313 80.2891C66.0615 80.7249 65.9859 81.1471 66.086 81.5565C66.1975 81.9722 66.4708 82.3057 66.9062 82.5572C67.3415 82.8083 67.7614 82.8752 68.1658 82.7574C68.5815 82.6459 68.9154 82.3725 69.1665 81.9367L72.4817 76.1952L75.4553 77.9123L72.1406 83.6539ZM82.8491 86.4902C82.5648 86.1886 82.2682 85.8947 81.9593 85.6095C81.6568 85.3129 81.3675 85.0463 81.0914 84.8103C80.8216 84.5628 80.5646 84.3458 80.3208 84.1593C80.0952 83.9683 79.9023 83.8259 79.7417 83.7335C79.5125 83.6012 79.316 83.5179 79.1522 83.4847C78.9948 83.4397 78.8706 83.4824 78.7796 83.6135C78.6755 83.7672 78.7069 83.9382 78.8734 84.1261C79.0517 84.3203 79.3246 84.5619 79.6926 84.8507C80.2194 85.262 80.6811 85.6664 81.0782 86.0635C81.4935 86.456 81.8065 86.8664 82.018 87.2939C82.2363 87.7102 82.3309 88.1546 82.3027 88.6272C82.2859 89.1062 82.1085 89.638 81.7714 90.2225C81.4535 90.7725 81.075 91.2037 80.6356 91.5148C80.2025 91.8151 79.7253 92.0057 79.205 92.0871C78.6955 92.1753 78.1514 92.1517 77.5728 92.0161C77.0056 91.8869 76.4297 91.654 75.8452 91.3165C75.2606 90.979 74.6233 90.4813 73.9337 89.8231C73.2623 89.1603 72.5923 88.4148 71.9249 87.586L74.4418 85.2115C74.6506 85.4849 74.8954 85.8019 75.176 86.1626C75.4749 86.5188 75.7828 86.8723 76.0994 87.223C76.4279 87.581 76.7549 87.9149 77.0802 88.2246C77.4232 88.5299 77.7498 88.7719 78.0591 88.9506C78.4831 89.1954 78.7715 89.1858 78.9234 88.9224C78.983 88.8192 78.9752 88.7 78.9006 88.5654C78.832 88.4189 78.7255 88.2729 78.5799 88.1278C78.4412 87.9713 78.2815 87.8107 78.1019 87.6456C77.9222 87.4809 77.7502 87.3281 77.5869 87.188C77.1521 86.83 76.7586 86.4651 76.4074 86.0944C76.0562 85.7237 75.7865 85.3311 75.5977 84.9163C75.4208 84.5087 75.3461 84.0683 75.3748 83.5957C75.403 83.1231 75.5759 82.6118 75.8938 82.0618C76.185 81.5574 76.538 81.158 76.9528 80.8628C77.3745 80.5557 77.8307 80.361 78.322 80.2778C78.8197 80.1832 79.3405 80.1936 79.885 80.3092C80.4409 80.4315 81.0054 80.6581 81.5786 80.9892C81.8533 81.148 82.1494 81.3495 82.467 81.5938C82.7845 81.838 83.0974 82.1028 83.4063 82.388C83.727 82.68 84.0409 82.9834 84.3479 83.2982C84.6663 83.6198 84.9611 83.9428 85.2322 84.2676L82.8491 86.4902ZM90.8414 86.6808C91.5979 87.1174 92.222 87.6383 92.7133 88.2428C93.2228 88.8424 93.5753 89.4892 93.7705 90.1825C93.9842 90.8712 94.0384 91.5981 93.9333 92.3623C93.8282 93.1265 93.5539 93.893 93.1104 94.6608C92.6605 95.4401 92.1278 96.0719 91.5115 96.5568C90.9024 97.0299 90.2451 97.3611 89.54 97.5498C88.8417 97.7277 88.1135 97.7577 87.3556 97.6413C86.6046 97.513 85.8622 97.2373 85.129 96.8138L81.3297 94.6204L87.1455 84.5469L90.8414 86.6808ZM86.8061 93.9089C87.402 94.2528 87.9984 94.3452 88.5947 94.185C89.1979 94.014 89.6947 93.59 90.0849 92.9141C90.4621 92.2609 90.5617 91.6381 90.3838 91.0468C90.206 90.455 89.7961 89.9737 89.1543 89.6034L88.4323 89.1863L85.991 93.4154C86.1333 93.5127 86.273 93.601 86.4108 93.6806C86.5482 93.7597 86.6801 93.8361 86.8061 93.9089ZM96.8669 103.499L93.8928 101.782L97.9322 94.7859L95.474 93.3667L97.1616 90.444L105.12 95.0393L103.433 97.962L100.906 96.5027L96.8669 103.499Z" fill="#F8F8F8"/>
<path d="M141.706 149.727L145.666 142.868L144.146 141.968L145.937 138.945L150.389 141.516L144.663 151.434L141.706 149.727ZM156.836 145.009C157.536 145.412 158.093 145.902 158.509 146.478C158.943 147.05 159.231 147.675 159.375 148.354C159.529 149.039 159.533 149.76 159.387 150.516C159.241 151.272 158.943 152.039 158.493 152.818C158.05 153.586 157.537 154.222 156.956 154.727C156.374 155.232 155.748 155.588 155.077 155.797C154.418 156.012 153.729 156.081 153.01 156.002C152.31 155.918 151.61 155.675 150.911 155.271C150.212 154.867 149.646 154.38 149.212 153.809C148.795 153.232 148.516 152.605 148.373 151.926C148.23 151.248 148.226 150.527 148.361 149.765C148.507 149.009 148.801 148.247 149.245 147.479C149.695 146.7 150.211 146.058 150.792 145.553C151.385 145.055 152.011 144.698 152.671 144.483C153.33 144.268 154.009 144.202 154.71 144.285C155.429 144.364 156.137 144.605 156.836 145.009ZM152.589 152.366C153.07 152.644 153.579 152.663 154.115 152.422C154.663 152.188 155.125 151.745 155.502 151.091C155.886 150.427 156.039 149.805 155.961 149.225C155.901 148.64 155.631 148.209 155.149 147.931C154.656 147.647 154.142 147.625 153.606 147.865C153.088 148.101 152.637 148.551 152.253 149.216C151.876 149.869 151.711 150.485 151.76 151.062C151.82 151.647 152.096 152.082 152.589 152.366ZM170.851 160.985C170.467 161.649 170.011 162.188 169.482 162.601C168.965 163.021 168.402 163.307 167.795 163.46C167.198 163.62 166.571 163.648 165.913 163.543C165.262 163.427 164.604 163.177 163.94 162.793C163.275 162.41 162.73 161.965 162.303 161.459C161.883 160.942 161.588 160.381 161.417 159.778C161.257 159.182 161.224 158.551 161.317 157.887C161.422 157.229 161.666 156.568 162.049 155.903L165.365 150.162L168.338 151.879L165.024 157.62C164.772 158.056 164.696 158.478 164.797 158.887C164.908 159.303 165.181 159.637 165.617 159.888C166.052 160.139 166.472 160.206 166.876 160.088C167.292 159.977 167.626 159.703 167.877 159.268L171.192 153.526L174.166 155.243L170.851 160.985ZM181.56 163.821C181.275 163.519 180.979 163.226 180.67 162.94C180.367 162.644 180.078 162.377 179.802 162.141C179.532 161.894 179.275 161.677 179.031 161.49C178.806 161.299 178.613 161.157 178.452 161.064C178.223 160.932 178.026 160.849 177.863 160.816C177.705 160.771 177.581 160.813 177.49 160.944C177.386 161.098 177.417 161.269 177.584 161.457C177.762 161.651 178.035 161.893 178.403 162.182C178.93 162.593 179.392 162.997 179.789 163.394C180.204 163.787 180.517 164.197 180.729 164.625C180.947 165.041 181.041 165.485 181.013 165.958C180.996 166.437 180.819 166.969 180.482 167.553C180.164 168.103 179.786 168.535 179.346 168.846C178.913 169.146 178.436 169.337 177.915 169.418C177.406 169.506 176.862 169.483 176.283 169.347C175.716 169.218 175.14 168.985 174.556 168.647C173.971 168.31 173.334 167.812 172.644 167.154C171.973 166.491 171.303 165.746 170.635 164.917L173.152 162.542C173.361 162.816 173.606 163.133 173.887 163.494C174.185 163.85 174.493 164.203 174.81 164.554C175.138 164.912 175.465 165.246 175.791 165.556C176.134 165.861 176.46 166.103 176.77 166.282C177.194 166.526 177.482 166.517 177.634 166.253C177.694 166.15 177.686 166.031 177.611 165.896C177.542 165.75 177.436 165.604 177.29 165.459C177.152 165.302 176.992 165.142 176.812 164.976C176.633 164.812 176.461 164.659 176.297 164.519C175.863 164.161 175.469 163.796 175.118 163.425C174.767 163.055 174.497 162.662 174.308 162.247C174.131 161.84 174.057 161.399 174.085 160.927C174.114 160.454 174.286 159.943 174.604 159.393C174.895 158.888 175.248 158.489 175.663 158.194C176.085 157.887 176.541 157.692 177.033 157.609C177.53 157.514 178.051 157.524 178.596 157.64C179.151 157.762 179.716 157.989 180.289 158.32C180.564 158.479 180.86 158.68 181.177 158.925C181.495 159.169 181.808 159.434 182.117 159.719C182.438 160.011 182.751 160.314 183.058 160.629C183.377 160.951 183.672 161.274 183.943 161.598L181.56 163.821ZM189.552 164.012C190.308 164.448 190.933 164.969 191.424 165.574C191.933 166.173 192.286 166.82 192.481 167.513C192.695 168.202 192.749 168.929 192.644 169.693C192.539 170.457 192.264 171.224 191.821 171.992C191.371 172.771 190.838 173.403 190.222 173.888C189.613 174.361 188.956 174.692 188.251 174.881C187.552 175.059 186.824 175.089 186.066 174.972C185.315 174.844 184.573 174.568 183.839 174.145L180.04 171.951L185.856 161.878L189.552 164.012ZM185.517 171.24C186.113 171.584 186.709 171.676 187.305 171.516C187.908 171.345 188.405 170.921 188.795 170.245C189.173 169.592 189.272 168.969 189.094 168.378C188.916 167.786 188.507 167.305 187.865 166.934L187.143 166.517L184.701 170.746C184.844 170.844 184.984 170.932 185.121 171.011C185.259 171.091 185.391 171.167 185.517 171.24ZM195.577 180.83L192.603 179.113L196.643 172.117L194.185 170.698L195.872 167.775L203.831 172.37L202.144 175.293L199.617 173.834L195.577 180.83Z" fill="#F8F8F8"/>
</g>
<defs>
<filter id="filter0_d_171_894" x="3.73309" y="8.01215" width="234.534" height="234.534" filterUnits="userSpaceOnUse" color-interpolation-filters="sRGB">
<feFlood flood-opacity="0" result="BackgroundImageFix"/>
<feColorMatrix in="SourceAlpha" type="matrix" values="0 0 0 0 0 0 0 0 0 0 0 0 0 0 0 0 0 0 127 0" result="hardAlpha"/>
<feOffset dy="4"/>
<feGaussianBlur stdDeviation="2"/>
<feComposite in2="hardAlpha" operator="out"/>
<feColorMatrix type="matrix" values="0 0 0 0 0.0470588 0 0 0 0 0.054902 0 0 0 0 0.0705882 0 0 0 0.3 0"/>
<feBlend mode="normal" in2="BackgroundImageFix" result="effect1_dropShadow_171_894"/>
<feBlend mode="normal" in="SourceGraphic" in2="effect1_dropShadow_171_894" result="shape"/>
</filter>
<filter id="filter1_d_171_894" x="97.5338" y="105.813" width="46.9323" height="46.9323" filterUnits="userSpaceOnUse" color-interpolation-filters="sRGB">
<feFlood flood-opacity="0" result="BackgroundImageFix"/>
<feColorMatrix in="SourceAlpha" type="matrix" values="0 0 0 0 0 0 0 0 0 0 0 0 0 0 0 0 0 0 127 0" result="hardAlpha"/>
<feOffset dy="8"/>
<feGaussianBlur stdDeviation="4"/>
<feComposite in2="hardAlpha" operator="out"/>
<feColorMatrix type="matrix" values="0 0 0 0 0 0 0 0 0 0 0 0 0 0 0 0 0 0 0.25 0"/>
<feBlend mode="normal" in2="BackgroundImageFix" result="effect1_dropShadow_171_894"/>
<feBlend mode="normal" in="SourceGraphic" in2="effect1_dropShadow_171_894" result="shape"/>
</filter>
<filter id="filter2_d_171_894" x="103.447" y="111.726" width="35.1053" height="35.1053" filterUnits="userSpaceOnUse" color-interpolation-filters="sRGB">
<feFlood flood-opacity="0" result="BackgroundImageFix"/>
<feColorMatrix in="SourceAlpha" type="matrix" values="0 0 0 0 0 0 0 0 0 0 0 0 0 0 0 0 0 0 127 0" result="hardAlpha"/>
<feOffset dy="8"/>
<feGaussianBlur stdDeviation="4"/>
<feComposite in2="hardAlpha" operator="out"/>
<feColorMatrix type="matrix" values="0 0 0 0 0 0 0 0 0 0 0 0 0 0 0 0 0 0 0.25 0"/>
<feBlend mode="normal" in2="BackgroundImageFix" result="effect1_dropShadow_171_894"/>
<feBlend mode="normal" in="SourceGraphic" in2="effect1_dropShadow_171_894" result="shape"/>
</filter>
<clipPath id="clip0_171_894">
<rect width="242" height="242" fill="white" transform="translate(0 0.279053)"/>
</clipPath>
</defs>
</svg>
