<svg width="86" height="80" viewBox="0 0 86 80" fill="none" xmlns="http://www.w3.org/2000/svg">
<path d="M68.7391 2.18948C66.306 -0.729826 19.8522 -0.729826 16.4467 2.18948C13.0412 5.10878 14.0005 45.482 16.4467 48.4013C17.4278 49.572 25.5557 50.3896 35.1312 50.7145C39.2539 50.854 43.6405 50.9042 47.8462 50.8496C58.2392 50.7167 67.4942 49.9579 68.7413 48.4013C71.6606 44.7538 71.1744 5.10878 68.7413 2.18948H68.7391Z" fill="#C4DBEA"/>
<path d="M15.9059 75.1045C15.6487 75.8545 15.265 76.8334 14.7962 77.9671C14.1007 79.6459 13.2265 81.643 12.3369 83.6509C10.5622 87.6538 8.71778 91.7003 8.1095 93.3049C8.90964 93.9677 9.60731 94.7438 10.2919 95.5091C10.3529 95.5789 10.3486 95.6835 10.2788 95.7446C10.209 95.8056 10.1044 95.8013 10.0433 95.7315C9.15382 94.7373 8.25775 93.7453 7.17419 93.0171C6.26504 92.4067 5.1902 91.9902 4.12407 91.9902C3.92131 91.9902 3.71637 92.0055 3.51579 92.036C3.42422 92.0513 3.3392 91.9881 3.32393 91.8965C3.30867 91.8049 3.3719 91.7199 3.46347 91.7046C3.68367 91.6697 3.90387 91.6545 4.12407 91.6545C5.2774 91.6545 6.40893 92.0992 7.35951 92.7381C7.52302 92.8471 7.68 92.9648 7.83479 93.0847C8.32098 91.8245 9.44161 89.3151 10.7018 86.4917C12.0012 83.5833 13.4467 80.3479 14.4844 77.8385C15.0687 76.4279 15.5244 75.2462 15.7511 74.4875C14.9445 71.2324 13.9416 67.199 13.7584 64.6635C6.40239 69.6038 -0.528503 90.294 0.0318118 92.9365C0.184427 93.6537 0.890816 94.4125 1.87409 95.1145C2.25999 94.7046 2.56958 94.3885 2.74836 94.225C3.80576 93.2591 7.22433 94.8986 7.51648 95.8143C7.59933 96.0716 7.75849 96.7954 7.91982 97.7177C9.19961 97.9793 10.2679 97.9727 10.7519 97.5629C12.0448 96.4662 15.3609 84.1197 16.5295 77.7251C16.3681 76.9904 16.1501 76.0921 15.9059 75.1045Z" fill="#C4DBEA"/>
<path d="M13.8259 62.915C13.7213 63.3401 13.7082 63.9418 13.7605 64.6635C13.9436 67.1991 14.9465 71.2325 15.7532 74.4875C15.5265 75.2441 15.0708 76.4257 14.4865 77.8385C13.4466 80.3479 12.0011 83.5834 10.7038 86.4918C9.44368 89.3152 8.32305 91.8246 7.83686 93.0847C7.68207 92.9648 7.52509 92.8493 7.36158 92.7381C6.41101 92.0993 5.27948 91.6567 4.12614 91.6545C3.90594 91.6545 3.68574 91.6698 3.46554 91.7047C3.37397 91.7199 3.31074 91.805 3.326 91.8965C3.34127 91.9881 3.4263 92.0513 3.51786 92.0361C3.72062 92.0055 3.92338 91.9903 4.12614 91.9903C5.19227 91.9903 6.26711 92.4045 7.17626 93.0172C8.25983 93.7453 9.15589 94.7373 10.0454 95.7315C10.1065 95.8013 10.2133 95.8056 10.2809 95.7446C10.3506 95.6836 10.355 95.5767 10.294 95.5091C9.60938 94.7461 8.91171 93.9699 8.11157 93.3049C8.71985 91.6981 10.5621 87.6517 12.339 83.651C13.2285 81.643 14.1028 79.6459 14.7983 77.9671C15.267 76.8334 15.6507 75.8545 15.908 75.1045C16.1522 76.0943 16.3702 76.9926 16.5316 77.7251C16.6493 78.2658 16.7365 78.7215 16.7801 79.0573C16.9502 80.4046 17.7154 80.9933 18.5526 81.0892C17.9073 74.8669 17.5824 67.1555 17.5301 59.6817C15.8317 60.3685 14.1682 61.5414 13.8281 62.915H13.8259Z" fill="#27224F"/>
<path d="M64.5617 58.2515C65.1177 58.2318 65.6104 58.5567 65.8328 59.0342C66.2972 59.0363 66.8553 59.1257 67.4483 59.2871C67.4549 58.6919 67.4614 58.0967 67.4658 57.5058C67.492 54.859 58.2762 52.8663 47.7567 52.1992C47.7 52.8969 47.628 53.4005 47.5474 53.6076C46.0278 57.4339 37.4966 57.6759 35.4668 53.6076C35.3774 53.431 35.2967 52.8707 35.227 52.0706C25.5774 52.5219 17.5106 54.3663 17.5193 58.1555C17.5193 58.6635 17.5237 59.1715 17.5258 59.6817C17.5803 67.1554 17.903 74.8669 18.5484 81.0892C19.1436 86.834 20.0156 91.3122 21.2017 93.1545C22.3855 94.9924 25.5861 96.3463 29.7503 97.2271C31.283 97.552 32.9465 97.8114 34.6907 98.0076C40.8519 98.7009 47.9965 98.5985 53.822 97.7155C55.6033 97.4451 57.2602 97.1028 58.7275 96.6886C61.7907 95.8231 64.0298 94.6436 64.843 93.1545C65.8568 91.2926 66.4672 86.5157 66.8444 80.4024C66.7703 80.4133 66.6984 80.4199 66.6286 80.4264C66.5196 81.0434 65.9898 81.523 65.3401 81.5448C64.5966 81.5688 63.9665 80.9802 63.9404 80.2367L63.2536 59.6512C63.2296 58.9055 63.8183 58.2776 64.5617 58.2515Z" fill="#C4DBEA"/>
<path d="M56.3968 66.896C55.8474 66.3553 54.0094 66.2507 51.4651 66.2878C51.4651 66.2899 51.4651 66.2943 51.4651 66.2965C51.4608 66.388 51.3845 66.4622 51.2929 66.4578C50.2769 66.4229 49.2413 66.3989 48.1883 66.3815C43.6338 66.3052 38.7065 66.351 33.2495 66.1657C30.7967 66.0828 28.2393 65.952 25.5598 65.7427C25.4683 65.7362 25.3985 65.6555 25.405 65.5617C25.4116 65.4702 25.4923 65.4004 25.586 65.4069C26.1289 65.4506 26.6652 65.4876 27.1994 65.5247C23.892 65.1889 21.3717 65.0734 20.299 65.8474C18.9211 66.8394 18.9473 72.2833 19.1609 76.0704C19.6427 84.6539 21.2474 91.4692 23.6958 93.6342C27.3563 96.8696 52.8517 98.1232 55.8713 94.9663C58.8909 91.8093 59.0479 69.4992 56.3968 66.8939V66.896Z" fill="#DBEBF4"/>
<path d="M64.5619 58.2515C63.8163 58.2754 63.2276 58.9055 63.2538 59.6512L63.9405 80.2367C63.9645 80.9824 64.5946 81.571 65.3402 81.5449C65.9899 81.5231 66.5197 81.0412 66.6287 80.4264C66.0117 80.4787 65.5364 80.3763 65.3402 80.071C64.4747 78.7258 63.9798 60.859 64.6404 59.4811C64.7908 59.1693 65.2334 59.0298 65.8351 59.0342C65.6106 58.5589 65.12 58.234 64.5641 58.2515H64.5619Z" fill="#659EB9"/>
<path d="M70.0713 62.9411C70.9412 63.4164 71.8067 64.1271 72.657 65.0123C72.5654 64.1816 72.4543 63.46 72.3213 62.9171C71.9048 61.2253 69.4783 59.8365 67.4507 59.2871C66.8577 59.1257 66.2995 59.0385 65.8351 59.0342C65.2334 59.0298 64.7908 59.1671 64.6404 59.4811C63.9798 60.859 64.4747 78.7258 65.3402 80.071C65.5364 80.3763 66.0117 80.4787 66.6287 80.4264C66.6985 80.4199 66.7704 80.4133 66.8446 80.4024C67.4354 80.3218 68.1309 80.1146 68.8373 79.8138C68.072 76.3581 67.5401 73.5217 67.5335 72.7717C67.5074 69.7368 68.3511 61.9971 70.0713 62.9411Z" fill="#27224F"/>
<path d="M65.0523 82.2818C64.9433 82.3145 64.8299 82.3319 64.7165 82.3319C64.2107 82.3341 63.6722 82.0027 63.3626 81.5558C62.9746 81.002 62.8394 80.2869 62.7522 79.5718C62.4622 77.2259 62.3314 71.5704 62.3314 66.9134C62.3314 63.8502 62.3881 61.2057 62.4905 60.2311C62.4993 60.1395 62.4339 60.0567 62.3423 60.048C62.2507 60.0392 62.1679 60.1046 62.1592 60.1962C62.0545 61.2057 62 63.8415 62 66.9134C62 71.5813 62.1286 77.228 62.423 79.6132C62.5145 80.3392 62.6475 81.1088 63.0901 81.7476C63.4586 82.273 64.069 82.6655 64.7187 82.6677C64.8626 82.6677 65.0087 82.648 65.1526 82.6044C65.242 82.5783 65.2899 82.4845 65.2638 82.3951C65.2376 82.3057 65.1439 82.2578 65.0545 82.2839L65.0523 82.2818Z" fill="#27224F"/>
<path d="M25.4074 65.5617C25.4009 65.6533 25.4685 65.734 25.5622 65.7427C28.2439 65.9542 30.7991 66.0828 33.2518 66.1656C38.7089 66.351 43.6362 66.3052 48.1906 66.3815C49.2437 66.3989 50.2793 66.4229 51.2953 66.4578C51.3868 66.46 51.4653 66.388 51.4675 66.2965C51.4675 66.2943 51.4675 66.2899 51.4675 66.2877C51.4675 66.1984 51.3977 66.1264 51.3083 66.1242C44.312 65.8822 36.4916 66.1591 27.2017 65.5247C26.6676 65.4876 26.1334 65.4505 25.5884 65.4069C25.4968 65.4004 25.4161 65.468 25.4074 65.5617Z" fill="#27224F"/>
<path d="M34.6057 63.9571C39.254 64.0574 43.9 64.2601 48.5395 64.5479C50.8309 64.6896 53.1223 64.8532 55.4093 65.0559C55.8606 65.0952 56.2465 64.6417 56.2465 64.2187C56.2465 63.7325 55.8606 63.4208 55.4093 63.3815C46.5838 62.6054 37.6907 62.1977 28.8325 62.226C26.6698 62.2325 24.5026 62.2718 22.3442 62.4004C21.2737 62.4636 21.265 64.1402 22.3442 64.0748C26.4234 63.8306 30.5222 63.8699 34.6057 63.9571Z" fill="white"/>
<path d="M22.1174 68.1453C22.137 67.0661 20.4626 67.0661 20.443 68.1453C20.31 75.5297 20.2097 83.1233 22.6581 90.1938C23.0091 91.2054 24.6268 90.7715 24.2736 89.749C21.8732 82.8116 21.9866 75.3901 22.1196 68.1453H22.1174Z" fill="white"/>
<path d="M47.5496 53.6076C47.6324 53.4005 47.7022 52.8969 47.7589 52.1992C47.7916 51.8046 47.8199 51.3511 47.8439 50.8496C43.6405 50.9042 39.2517 50.854 35.1289 50.7145C35.1572 51.2159 35.19 51.6738 35.2248 52.0706C35.2946 52.8685 35.3774 53.431 35.4647 53.6076C37.4966 57.6759 46.0278 57.4339 47.5452 53.6076H47.5496Z" fill="#27224F"/>
<path d="M59.6235 10.3369C57.6788 8.09131 20.5127 8.09131 17.7896 10.3369C15.0665 12.5825 15.834 43.644 17.7896 45.8897C19.7453 48.1353 57.2885 48.6956 59.6235 45.8897C61.9585 43.0837 61.5683 12.5825 59.6235 10.3369Z" fill="#27224F"/>
<path d="M44.1071 25.049C42.6311 25.1667 41.1507 25.2518 39.6704 25.3085C39.6551 26.8477 39.6246 28.3891 39.5723 29.9283C41.1529 29.9065 42.7292 29.8716 44.3033 29.8302C44.2336 28.2735 44.1703 26.6667 44.1071 25.049Z" fill="#252F6D"/>
<path d="M44.3337 30.5541C42.7356 30.6849 41.1353 30.7808 39.5351 30.8397C39.4893 31.9952 39.4348 33.1507 39.3672 34.304C41.0896 34.28 42.8054 34.243 44.519 34.195C44.4536 33.0308 44.3926 31.8099 44.3337 30.5519V30.5541Z" fill="#252F6D"/>
<path d="M49.564 29.9654C48.0706 30.1812 46.5706 30.3535 45.0662 30.4886C45.0423 31.7205 44.9943 32.9523 44.9202 34.1841C46.5095 34.1383 48.0924 34.0795 49.6709 34.0119C49.6316 32.6689 49.5967 31.3215 49.564 29.9676V29.9654Z" fill="#252F6D"/>
<path d="M45.051 24.9662C45.0859 26.5796 45.099 28.1929 45.0772 29.8063C46.5772 29.7627 48.0706 29.7082 49.5575 29.6428C49.5183 27.9182 49.479 26.1893 49.4376 24.4604C47.9812 24.6675 46.5183 24.8354 45.051 24.9662Z" fill="#252F6D"/>
<path d="M26.7526 34.3346C26.6087 33.1245 26.4975 31.9102 26.4103 30.6936C24.8645 30.6042 23.321 30.4821 21.7795 30.3273C21.8297 31.6551 21.8842 32.9785 21.9387 34.2953C23.539 34.3106 25.1436 34.3258 26.7526 34.3367V34.3346Z" fill="#252F6D"/>
<path d="M44.8613 20.5207C44.9224 21.5171 44.9725 22.5113 45.0139 23.5076C45.0227 23.7649 45.027 24.0243 45.0336 24.2816C46.5052 24.2402 47.9703 24.1857 49.4311 24.1224C49.3962 22.7162 49.3569 21.3122 49.3111 19.9103C47.8351 20.1566 46.3504 20.3616 44.8635 20.5207H44.8613Z" fill="#252F6D"/>
<path d="M38.8506 30.8593C37.6363 30.8986 36.4219 30.9247 35.2075 30.9334C34.6537 30.9334 34.0999 30.9291 33.5484 30.9225C33.5069 32.065 33.4546 33.2074 33.3936 34.3477C35.2707 34.3433 37.1457 34.3324 39.0185 34.3084C38.9531 33.1594 38.8964 32.0105 38.8528 30.8593H38.8506Z" fill="#252F6D"/>
<path d="M32.9684 34.3498C32.9051 33.2052 32.855 32.0606 32.8114 30.916C30.932 30.8898 29.0527 30.8332 27.1755 30.735C27.1886 31.9407 27.2039 33.142 27.2126 34.3389C29.1268 34.3498 31.0454 34.3542 32.9662 34.352L32.9684 34.3498Z" fill="#252F6D"/>
<path d="M53.7064 37.1775C55.6381 35.1543 55.3154 13.1668 53.7064 11.5469C53.1374 10.9757 48.9405 10.6073 43.6491 10.4372C43.9238 11.826 44.144 13.2235 44.3228 14.6276C45.9165 14.5796 47.5037 14.5207 49.0822 14.451C49.0299 13.4655 48.9732 12.4844 48.9056 11.5077C49.1476 12.4757 49.3482 13.4502 49.5183 14.4313C50.1222 14.403 50.7283 14.3812 51.33 14.3485C50.7414 14.4597 50.1505 14.56 49.5597 14.6581C49.8409 16.3216 50.0284 18.0004 50.1592 19.6835C50.362 19.6726 50.5691 19.666 50.7719 19.6551C50.5691 19.6944 50.3664 19.7249 50.1658 19.7598C50.277 21.1987 50.3467 22.6398 50.3903 24.0766C51.0509 24.0461 51.7159 24.0199 52.3743 23.985C51.7159 24.1071 51.0553 24.2161 50.3925 24.3186C50.4187 26.0802 50.41 27.8418 50.3489 29.6034C51.0226 29.5729 51.7006 29.5468 52.3722 29.5097C51.6963 29.634 51.0182 29.7473 50.3402 29.852C50.2879 31.2342 50.205 32.6121 50.0764 33.99C50.8416 33.9551 51.6113 33.9246 52.3722 33.8832C51.6004 34.0249 50.8242 34.1514 50.048 34.2691C49.9674 35.1063 49.8736 35.9435 49.7559 36.7763C49.7254 35.9609 49.6992 35.1412 49.6752 34.3192C48.0793 34.5525 46.4769 34.7335 44.87 34.8752C44.8199 35.6143 44.7632 36.3534 44.6913 37.0903C44.6433 36.3926 44.5975 35.6601 44.5517 34.9014C42.8054 35.0496 41.0547 35.1521 39.3018 35.2153C39.2625 35.841 39.2277 36.4646 39.184 37.0903C39.1383 36.4689 39.1056 35.8454 39.0663 35.2219C37.7778 35.2655 36.4871 35.2916 35.1986 35.3025C34.5729 35.3025 33.9494 35.2982 33.3236 35.2916C33.2757 36.0918 33.2299 36.8941 33.1732 37.6942C33.1165 36.8941 33.0685 36.0918 33.0228 35.2894C31.0867 35.2655 29.1485 35.2066 27.2147 35.1063C27.2212 35.9718 27.2278 36.8352 27.2299 37.6942C27.0817 36.8287 26.9574 35.9588 26.8462 35.0889C25.2111 34.9995 23.5803 34.8774 21.9495 34.716C21.98 35.4333 22.0083 36.1506 22.0367 36.8636C21.8906 36.1528 21.7554 35.4224 21.6268 34.6833C20.5149 34.57 19.4052 34.4413 18.2976 34.2887C18.52 35.8105 18.7925 36.8679 19.0999 37.1753C20.7176 38.793 51.7704 39.1986 53.7021 37.1753L53.7064 37.1775Z" fill="#252F6D"/>
<path d="M21.5636 34.291C21.3434 32.9741 21.1581 31.6224 21.0099 30.2467C20.0091 30.1377 19.0084 30.0199 18.0099 29.8804C18.9953 29.8913 19.9852 29.9022 20.9772 29.9109C20.8006 28.1907 20.6872 26.4379 20.6458 24.6828C19.7671 24.5847 18.8863 24.4778 18.0099 24.3536C18.882 24.3623 19.7606 24.3732 20.637 24.3819C20.6131 23.0193 20.6371 21.6566 20.7068 20.3071C19.9699 20.2133 19.233 20.1131 18.4961 19.9997C19.2352 20.0128 19.9786 20.0215 20.7221 20.0324C20.8202 18.3187 21.0033 16.6334 21.2802 15.0026C20.5368 14.9089 19.7955 14.8086 19.0564 14.693C19.8107 14.7061 20.5695 14.7148 21.326 14.7279C21.52 13.6269 21.7555 12.5477 22.0411 11.5099C21.9343 12.5804 21.8492 13.6553 21.7838 14.7366C23.3907 14.7585 25.004 14.7781 26.6239 14.7912C26.7787 13.5092 26.9771 12.2316 27.2366 10.9649C27.1908 12.2338 27.1602 13.5135 27.1363 14.7955C29.057 14.8086 30.9843 14.8108 32.9138 14.8064C32.9858 13.3239 33.0686 11.8413 33.1755 10.361C26.2773 10.4591 20.0724 10.8559 19.1065 11.5492C17.2839 12.8573 17.3515 27.7503 18.2999 34.2583C19.3856 34.2714 20.4757 34.2823 21.568 34.2932L21.5636 34.291Z" fill="#252F6D"/>
<path d="M33.4457 14.802C35.264 14.7954 37.0823 14.7802 38.9006 14.7518C38.9682 13.2824 39.0489 11.8129 39.1491 10.3456C37.1739 10.326 35.1528 10.3282 33.1841 10.3565C33.2909 11.8369 33.3738 13.3194 33.4457 14.7998V14.802Z" fill="#252F6D"/>
<path d="M44.4079 15.3122C44.5867 16.8361 44.7197 18.3688 44.8222 19.9015C46.3222 19.8514 47.8156 19.7925 49.3025 19.7227C49.248 18.0527 49.1826 16.387 49.0976 14.7322C47.5409 14.9742 45.9755 15.1639 44.4058 15.3122H44.4079Z" fill="#252F6D"/>
<path d="M26.3601 29.9589C26.2576 28.3586 26.1944 26.7561 26.1595 25.1537C24.6421 25.0621 23.129 24.94 21.616 24.7852C21.6465 26.4989 21.6988 28.2103 21.762 29.9196C23.2904 29.9349 24.8209 29.948 26.3601 29.9589Z" fill="#252F6D"/>
<path d="M39.2341 10.3478C39.3344 11.8129 39.4151 13.278 39.4827 14.7453C40.9042 14.7213 42.3235 14.6886 43.7385 14.6494C43.6861 13.169 43.6338 11.7541 43.5815 10.4372C42.1905 10.3936 40.7276 10.3631 39.2341 10.3478Z" fill="#252F6D"/>
<path d="M39.6572 20.0345C41.083 20.0084 42.5045 19.9735 43.9217 19.9299C43.8672 18.3754 43.8148 16.8449 43.7647 15.3732C42.3541 15.4975 40.9391 15.5891 39.5242 15.6501C39.583 17.1109 39.631 18.5738 39.6572 20.0367V20.0345Z" fill="#252F6D"/>
<path d="M27.0925 20.1021C28.9675 20.113 30.8468 20.1152 32.7284 20.1086C32.7567 18.6544 32.809 17.2002 32.8701 15.746C30.9537 15.7199 29.0373 15.6588 27.1252 15.5433C27.1034 17.0563 27.0903 18.5781 27.0903 20.1021H27.0925Z" fill="#252F6D"/>
<path d="M26.142 24.3317C26.1377 23.1632 26.1508 21.9924 26.1856 20.8216C24.6508 20.7235 23.1203 20.5861 21.5941 20.4095C21.581 21.7351 21.5876 23.0629 21.6094 24.3906C23.1159 24.4059 24.6268 24.419 26.1442 24.4299C26.1442 24.3972 26.1442 24.3645 26.1442 24.3317H26.142Z" fill="#252F6D"/>
<path d="M39.6636 20.9197C39.6788 22.0796 39.6832 23.2416 39.6767 24.4015C41.1461 24.3797 42.6134 24.3492 44.0785 24.3121C44.0327 23.0759 43.9891 21.8376 43.9455 20.6101C42.5218 20.7475 41.0938 20.8478 39.6636 20.9197Z" fill="#252F6D"/>
<path d="M32.7853 29.9741C32.7373 28.4458 32.7089 26.9174 32.698 25.3869C30.8361 25.3608 28.9742 25.3019 27.1167 25.2038C27.132 26.791 27.1494 28.3782 27.169 29.961C29.0375 29.9719 30.9124 29.9763 32.7874 29.9741H32.7853Z" fill="#252F6D"/>
<path d="M32.6893 24.4495C32.6872 23.3179 32.6937 22.1886 32.7111 21.057C30.8362 21.0374 28.9612 20.9786 27.0884 20.8739C27.0884 22.0599 27.0971 23.2482 27.108 24.4364C28.9655 24.4473 30.8253 24.4516 32.6893 24.4495Z" fill="#252F6D"/>
<path d="M38.7154 25.339C37.5446 25.3761 36.376 25.4 35.2074 25.4088C34.6929 25.4088 34.1762 25.4044 33.6617 25.4C33.6508 26.9262 33.6224 28.4502 33.5745 29.9741C35.323 29.9698 37.0693 29.9589 38.8135 29.9371C38.7612 28.4044 38.7307 26.8739 38.7154 25.3412V25.339Z" fill="#252F6D"/>
<path d="M21.5984 20.0455C23.1333 20.0673 24.6703 20.0847 26.2139 20.0956C26.2728 18.5607 26.3752 17.0259 26.5409 15.4997C24.945 15.3929 23.3535 15.249 21.7663 15.0571C21.6703 16.7097 21.618 18.3732 21.5984 20.0433V20.0455Z" fill="#252F6D"/>
<path d="M35.2075 15.7613C34.6341 15.7613 34.0629 15.7592 33.4895 15.7526C33.5527 17.2025 33.6029 18.6545 33.6312 20.1065C35.3318 20.0978 37.0302 20.0825 38.7264 20.0542C38.7525 18.5934 38.7983 17.1349 38.8572 15.6741C37.6406 15.7199 36.4219 15.7483 35.2053 15.7592L35.2075 15.7613Z" fill="#252F6D"/>
<path d="M34.6492 21.0679C34.3156 21.0679 33.982 21.0658 33.6484 21.0636C33.6659 22.1929 33.6724 23.3201 33.6702 24.4495C35.349 24.4451 37.0299 24.4342 38.7065 24.4124C38.7 23.2634 38.7043 22.1166 38.7196 20.9677C37.3635 21.0243 36.0052 21.0549 34.6492 21.0679Z" fill="#252F6D"/>
<path d="M33.1252 54.2094C34.2415 57.774 37.7843 60.3968 41.5168 60.423H41.5648C45.2821 60.4186 48.8293 57.846 49.9848 54.3118C50.024 54.1897 49.9586 54.0589 49.8343 54.0175C49.7122 53.9783 49.5814 54.0437 49.54 54.1679C48.4608 57.4993 45.064 59.9629 41.5648 59.9586H41.519C38.0023 59.9411 34.6099 57.4295 33.5678 54.072C33.5285 53.9499 33.3977 53.8802 33.2756 53.9194C33.1535 53.9586 33.0838 54.0895 33.123 54.2115L33.1252 54.2094Z" fill="#27224F"/>
<path d="M68.994 6.12692C68.6779 3.37767 66.8574 4.97359 65.7324 6.1182C64.0864 7.79696 63.0028 9.6 62.5515 11.9437C62.4425 12.5128 62.3727 13.0862 62.3248 13.6617C62.5973 16.5723 62.9418 20.198 62.9418 22.8775C62.9418 23.3397 62.9309 23.7757 62.9091 24.1747C62.9025 24.2968 62.8022 24.3884 62.6823 24.3906C62.7979 27.9683 62.7652 31.5526 62.5799 35.1281C62.6932 35.1456 62.7804 35.2437 62.7783 35.3614C62.7259 37.2124 62.6256 39.0612 62.4796 40.9079C62.3597 42.4013 62.2005 43.9427 61.6336 45.3686C61.553 45.9703 61.4701 46.572 61.3807 47.1716C61.3502 47.3831 61.3197 47.6098 61.4047 47.806C61.5203 48.0742 61.8168 48.2137 62.098 48.2966C64.1998 48.9114 66.4672 47.4943 67.5507 45.591C68.6343 43.6876 68.8131 41.4202 68.9613 39.2356C69.7048 28.2081 70.2586 17.1065 68.9984 6.12474L68.994 6.12692Z" fill="#DBEBF4"/>
<path d="M63.8445 1.90606C63.258 1.65316 62.6061 1.62264 61.9673 1.59865C52.926 1.24982 43.8737 1.30868 34.828 1.36755C29.6893 1.40025 24.52 1.43732 19.4662 2.36391C19.0128 2.44676 18.5353 2.55141 18.2061 2.8719C17.9357 3.13352 17.8049 3.50634 17.6828 3.86171C17.2642 5.08917 16.9067 6.62404 17.8289 7.53755C18.52 8.21996 19.6145 8.20906 20.5847 8.15237C26.3819 7.81008 32.1791 7.4438 37.9872 7.28247C37.9981 7.17128 38.0831 7.07753 38.1986 7.07099C42.28 6.80064 46.3701 6.66547 50.4601 6.66547C52.6447 6.66547 54.8293 6.70471 57.0139 6.78102C57.7617 6.80718 58.5662 6.86169 59.3162 7.06445C59.8111 7.19744 60.2842 7.40238 60.6941 7.70979C61.8692 7.21706 62.8961 6.31663 63.9731 5.20691C64.4855 4.67929 65.0349 4.05575 64.9847 3.3232C64.9411 2.68658 64.4288 2.15897 63.8445 1.90606Z" fill="#DBEBF4"/>
<path d="M62.7763 35.3636C62.7807 35.2459 62.6913 35.1478 62.5779 35.1303C62.5692 35.1303 62.5605 35.1238 62.5496 35.1238C62.4209 35.1194 62.3141 35.2219 62.3097 35.3505C62.2574 37.1928 62.1571 39.0351 62.011 40.873C61.8846 42.4885 61.7102 44.1128 61.0539 45.5452C60.6855 46.3519 60.1448 47.0953 59.4035 47.5009C58.9304 47.7625 58.3701 47.8868 57.7989 47.9979C55.2676 48.4972 52.6994 48.8068 50.1223 48.9267C49.9937 48.9333 49.8934 49.0423 49.9 49.1709C49.9065 49.2995 50.0155 49.3998 50.1441 49.3933C52.7451 49.2734 55.3352 48.9594 57.8904 48.4558C58.4682 48.3424 59.0765 48.2138 59.6302 47.9086C60.498 47.4311 61.0844 46.6004 61.4791 45.7392C61.5336 45.6172 61.5815 45.4951 61.6295 45.3708C62.1964 43.9449 62.3577 42.4057 62.4754 40.9101C62.6215 39.0634 62.7218 37.2146 62.7741 35.3636H62.7763Z" fill="#27224F"/>
<path d="M57.0139 6.78097C54.8294 6.70466 52.6448 6.66541 50.4602 6.66541C46.3701 6.66541 42.2801 6.80059 38.1987 7.07093C38.0832 7.07966 37.9959 7.17122 37.9872 7.28241C37.9872 7.2955 37.9807 7.3064 37.9829 7.31948C37.9916 7.44811 38.1028 7.54622 38.2314 7.5375C41.8157 7.29986 45.4087 7.1734 49.0017 7.14506C49.4878 7.1407 49.9762 7.13198 50.4624 7.13198C52.6426 7.13198 54.8206 7.17122 57.0009 7.24753C57.7356 7.27369 58.5096 7.3282 59.1985 7.5157C59.5452 7.60945 59.8657 7.7359 60.1535 7.90378C60.4391 8.07165 60.6898 8.28313 60.8947 8.54694C61.4332 9.23589 61.5575 10.2017 61.6316 11.1567C61.8758 14.1762 62.4776 19.3782 62.4754 22.8775C62.4754 23.3331 62.4645 23.7605 62.4427 24.1485C62.4361 24.2772 62.5342 24.3862 62.6629 24.3949C62.6694 24.3949 62.676 24.3927 62.6825 24.3927C62.8024 24.3905 62.9027 24.299 62.9092 24.1769C62.931 23.7779 62.9419 23.3419 62.9419 22.8797C62.9419 20.2002 62.5975 16.5745 62.3249 13.6639C62.2356 12.722 62.1549 11.8543 62.096 11.1196C62.0284 10.3173 61.9369 9.44955 61.5379 8.69955C61.5662 8.68647 61.5946 8.66903 61.6164 8.64505C63.5262 6.63271 65.5451 4.72066 67.6599 2.92417C67.758 2.84132 67.7689 2.69307 67.6861 2.59496C67.6032 2.49685 67.455 2.48595 67.3569 2.56879C65.2355 4.37183 63.2101 6.28824 61.2937 8.30711C61.2828 8.29185 61.2741 8.27441 61.261 8.25915C61.0931 8.04331 60.9013 7.86235 60.6941 7.70756C60.2864 7.40015 59.8133 7.19739 59.3162 7.06221C58.5663 6.85945 57.7596 6.80495 57.0139 6.77879V6.78097Z" fill="#27224F"/>
<path d="M25.3572 5.7977C33.6115 5.01936 41.9246 4.87983 50.2007 5.4009C52.4573 5.54261 54.7247 5.79334 56.9812 5.51427C57.3976 5.46195 57.7574 5.19378 57.7574 4.73812C57.7574 4.35876 57.3998 3.90964 56.9812 3.96196C54.9732 4.20832 52.9609 4.03173 50.9529 3.89655C48.8861 3.75702 46.8149 3.65673 44.7415 3.60004C40.5969 3.48231 36.4501 3.53028 32.3099 3.73958C29.988 3.85731 27.6704 4.02737 25.3572 4.24539C24.9386 4.28463 24.5811 4.5746 24.5811 5.02154C24.5811 5.4118 24.9386 5.83912 25.3572 5.7977Z" fill="white"/>
<path d="M68.7172 33.0743C68.63 25.7205 68.34 18.3688 67.8517 11.028C67.7863 10.036 66.2318 10.0273 66.2972 11.028C66.7855 18.3666 67.0755 25.7183 67.1627 33.0743C67.1736 34.0729 68.7281 34.0772 68.7172 33.0743Z" fill="white"/>
<path d="M22.1828 60.46C22.8521 60.6475 23.5563 60.6562 24.2518 60.6562C26.8136 60.6562 29.3753 60.5341 31.924 60.2921C32.19 60.266 32.4756 60.2333 32.6805 60.0632C33.0773 59.7362 32.9836 59.1148 32.8484 58.6199C32.5214 57.423 32.1507 56.2369 31.7387 55.064C31.5991 54.665 31.4422 54.2529 31.1326 53.963C30.5832 53.4506 29.7372 53.4811 28.9916 53.564C26.3296 53.8605 22.597 54.1853 20.2882 55.6592C18.0535 57.085 20.3209 59.9411 22.1828 60.46Z" fill="#DBEBF4"/>
<path d="M62.0982 56.5139C61.8846 55.9405 61.3504 55.548 60.8032 55.2755C59.6041 54.6759 58.2458 54.4906 56.918 54.3162C55.6492 54.1483 53.1899 53.2806 52.1019 54.2464C51.57 54.7195 51.3672 55.6396 51.0402 56.2435C50.6194 57.024 50.0874 57.6934 49.5598 58.3976C49.2829 58.7202 48.9821 59.0385 48.8207 59.4332C48.6594 59.8278 48.6747 60.3292 48.9777 60.6279C49.1739 60.8198 49.453 60.8983 49.719 60.9637C52.3374 61.6003 55.0583 61.7246 57.7509 61.5938C58.3831 61.5632 59.0285 61.5153 59.6041 61.2536C60.6331 60.7871 61.2567 59.7384 61.7385 58.7181C62.0655 58.0269 62.362 57.2355 62.096 56.5182L62.0982 56.5139Z" fill="#DBEBF4"/>
<path d="M5.42573 83.8493C6.65973 80.3021 7.95259 76.7091 9.80796 73.4301C10.22 72.6997 10.7302 71.8821 11.2033 71.276C11.369 71.0624 11.6655 70.7179 11.9053 70.4759C12.0274 70.3538 12.1517 70.2339 12.2825 70.1205C12.3305 70.0791 12.3806 70.0377 12.4286 69.9984C12.4438 69.9897 12.5441 69.9091 12.5746 69.8894C12.9431 69.6278 13.1175 69.1591 12.8755 68.7426C12.6619 68.3785 12.1015 68.1801 11.7287 68.4418C10.5165 69.3008 9.6161 70.5195 8.84212 71.7709C7.87847 73.3276 7.09795 74.9933 6.37848 76.6743C4.88285 80.1757 3.67284 83.7839 2.45628 87.3878C2.20337 88.1356 1.95047 88.8834 1.68448 89.6269C1.57765 89.9234 1.47082 90.2199 1.35527 90.5121C1.31167 90.6276 1.2637 90.741 1.21792 90.8544C1.21574 90.8609 1.21356 90.8631 1.21138 90.8696C1.18739 90.9241 1.16341 90.9764 1.13943 91.031C0.949752 91.4408 1.02388 91.9336 1.4403 92.1777C1.80222 92.3892 2.39523 92.2889 2.58709 91.8769C3.06892 90.8326 3.42865 89.7315 3.79711 88.6436C4.34216 87.0455 4.87195 85.4409 5.42573 83.845V83.8493Z" fill="white"/>
<path d="M72.6568 65.0123C71.8065 64.1271 70.941 63.4186 70.0711 62.9411C68.3487 61.9971 67.5071 69.7368 67.5333 72.7717C67.5398 73.5217 68.0718 76.3581 68.8371 79.8138C70.2978 86.4198 72.6045 95.2933 73.6924 96.2155C74.1764 96.6254 75.2425 96.6319 76.5245 96.3703C76.6858 95.4481 76.845 94.7242 76.9278 94.467C77.22 93.5513 80.6386 91.9096 81.696 92.8776C81.8748 93.0411 82.1843 93.3572 82.5702 93.7671C83.5535 93.0651 84.2599 92.3064 84.4125 91.5891C84.9227 89.1843 79.2302 71.8385 72.659 65.0101L72.6568 65.0123Z" fill="#C4DBEA"/>
<path d="M71.872 68.5421C71.9134 68.5726 71.957 68.6032 71.9984 68.6337C72.018 68.6511 72.0595 68.6838 72.0834 68.7035C72.2012 68.8081 72.3211 68.9106 72.4345 69.0218C72.6699 69.2507 72.8901 69.497 73.0994 69.75C73.2826 69.9723 73.457 70.2078 73.6728 70.5218C73.8974 70.8466 74.1089 71.1802 74.3116 71.5203C75.2426 73.0704 76.0122 74.7208 76.712 76.3865C78.1379 79.7746 79.2869 83.2695 80.462 86.7513C80.8915 88.0201 81.297 89.3152 81.8595 90.5339C82.0492 90.9438 82.6422 91.0463 83.0063 90.8348C83.4271 90.5884 83.4969 90.1022 83.3072 89.688C83.2788 89.6291 83.2527 89.5681 83.2265 89.5092C83.257 89.5746 83.1589 89.3435 83.1306 89.2759C83.0303 89.023 82.9365 88.7701 82.8428 88.515C82.6117 87.8806 82.3937 87.244 82.1778 86.6052C81.6153 84.946 81.0637 83.2825 80.4838 81.6299C79.2106 78.0021 77.8697 74.311 75.9315 70.9752C75.09 69.5276 74.1001 68.0777 72.7157 67.0966C72.3473 66.835 71.7848 67.0312 71.5689 67.3975C71.3225 67.8161 71.4991 68.2805 71.8698 68.5443L71.872 68.5421Z" fill="white"/>
<path d="M80.3203 90.6429C80.523 90.6429 80.728 90.6581 80.9285 90.6887C81.0201 90.7039 81.1051 90.6407 81.1204 90.5491C81.1357 90.4576 81.0724 90.3725 80.9809 90.3573C80.7607 90.3224 80.5405 90.3071 80.3203 90.3071C79.1669 90.3071 78.0354 90.7519 77.0848 91.3907C76.9213 91.4997 76.7643 91.6174 76.6095 91.7374C75.9577 90.0477 74.1568 86.0928 72.4148 82.1662C71.5253 80.1604 70.651 78.1634 69.9577 76.4911C69.2644 74.8189 68.7521 73.4628 68.5864 72.7608C68.5646 72.6714 68.4752 72.6147 68.3858 72.6365C68.2964 72.6583 68.2397 72.7477 68.2615 72.8371C68.4381 73.5849 68.9548 74.9366 69.6503 76.6176C70.6925 79.1357 72.1379 82.3712 73.4373 85.2796C74.7324 88.1771 75.8814 90.7519 76.337 91.9554C75.5369 92.6182 74.8392 93.3943 74.1546 94.1596C74.0936 94.2293 74.0979 94.334 74.1677 94.395C74.2375 94.4561 74.3421 94.4517 74.4054 94.382C75.2949 93.3878 76.1909 92.3958 77.2745 91.6676C78.1837 91.0571 79.2585 90.6407 80.3246 90.6407L80.3203 90.6429Z" fill="#27224F"/>
<path d="M51.8096 75.9657C51.0793 74.6118 50.7937 73.0203 49.83 71.9934C47.9943 70.0377 44.7566 69.1656 39.0837 69.1656C34.732 69.1656 31.3418 69.6497 29.5409 71.0057C27.7641 72.3444 27.062 74.8364 26.4625 76.3996C25.1064 79.9381 28.2437 82.3014 38.9268 82.3014C49.6098 82.3014 53.992 80.0035 51.8096 75.9636V75.9657Z" fill="#27224F"/>
<path d="M50.8504 75.4032C50.2007 74.2761 49.9478 72.9483 49.091 72.0937C47.458 70.4651 44.5758 69.7369 39.5286 69.7369C35.6565 69.7369 32.6413 70.1402 31.0388 71.2696C29.4582 72.3858 28.8325 74.4636 28.3005 75.7652C27.0948 78.715 29.8855 80.6837 39.3912 80.6837C48.897 80.6837 52.7952 78.7695 50.8526 75.4011L50.8504 75.4032Z" fill="#48BBC9"/>
<path d="M37.041 70.3146C31.6537 70.3146 30.5483 72.643 29.1792 75.1285C27.9735 77.3152 30.2889 79.0572 36.9451 79.0572C43.6013 79.0572 46.6667 77.3218 44.9704 74.8385C43.0693 72.0566 42.4305 70.3146 37.0432 70.3146H37.041Z" fill="#7AC8D3"/>
<g style="mix-blend-mode:hard-light">
<path d="M53.6868 23.8084C53.8068 23.706 53.9223 23.597 54.0335 23.4836C54.9601 22.5308 55.5313 21.214 55.5313 19.7576C55.5313 16.8492 53.2421 14.4902 50.4187 14.4902H44.1724V16.9255H45.3039V22.5875H34.2372V21.432V14.4902H29.578C29.4276 14.4771 29.2772 14.4706 29.1246 14.4706C28.9719 14.4706 28.8193 14.4771 28.6689 14.4902C26.0592 14.7213 24.012 16.9124 24.012 19.5832V24.6958V30.687H26.3775V25.025H31.8738V33.1245H34.2393V25.025H45.3061V30.687H44.1746V33.1223H50.4209C51.8337 33.1223 53.1113 32.5336 54.0357 31.5809C54.9623 30.6281 55.5335 29.3113 55.5335 27.8549C55.5335 26.2263 54.8162 24.7721 53.689 23.8063L53.6868 23.8084ZM28.6667 16.8732C28.815 16.8492 31.8716 16.6791 31.8716 16.8361V22.5897H26.3753V21.4342V19.5854C26.3753 18.2249 27.3695 17.0912 28.6667 16.8754V16.8732ZM47.6673 16.9277H50.4165C51.9318 16.9277 53.1658 18.1987 53.1658 19.7598C53.1658 21.3208 51.9318 22.5897 50.4165 22.5897H47.6673V16.9277ZM50.4165 30.6892H47.6673V25.0272H50.4165C51.9318 25.0272 53.1658 26.2982 53.1658 27.8593C53.1658 29.4203 51.9318 30.6892 50.4165 30.6892Z" fill="#DBEBF4"/>
<path d="M39.3272 36.1079C41.5925 36.1079 43.6026 36.448 45.2879 36.9102C50.5619 38.3535 53.7755 41.2052 53.9107 41.3251C54.3576 41.7263 54.3947 42.4131 53.9935 42.86C53.5924 43.307 52.9056 43.344 52.4587 42.9429C52.4107 42.9014 49.4151 40.2699 44.623 38.9814C38.2284 37.2634 31.799 38.6217 25.5091 43.0235C25.0185 43.368 24.3383 43.2481 23.9938 42.7554C23.6493 42.2626 23.7692 41.5846 24.262 41.2401C29.8629 37.3223 35.0497 36.1057 39.3294 36.1057L39.3272 36.1079Z" fill="#DBEBF4"/>
</g>
</svg>
