<svg width="398" height="47" viewBox="0 0 398 47" fill="none" xmlns="http://www.w3.org/2000/svg">
<g opacity="0.42">
<path d="M-123.582 15.6855L-101.888 11.1511C-67.687 4.00243 -32.2873 4.96001 1.47727 13.9472L18.1426 18.3831C48.2352 26.3929 79.9841 25.6893 109.692 16.3543C139.842 6.88065 172.083 6.2996 202.555 14.6808L222.981 20.299C247.89 27.1502 273.753 29.8703 299.543 28.351L332.48 26.4106C349.34 25.4173 366.07 22.8411 382.449 18.7161C426.405 7.64575 472.443 7.84121 516.303 19.2844L521.582 20.6616V69.4965L-123.582 71.506V15.6855Z" fill="url(#paint0_linear_171_1093)" fill-opacity="0.5"/>
<path d="M-123.582 33.4452L-79.6716 22.35C-52.9123 15.5884 -24.7709 16.6862 1.3803 25.5119L14.76 30.0273C38.396 38.0041 64.0987 37.3145 87.2729 28.0816C110.786 18.714 136.889 18.1451 160.787 26.4795L169.047 29.3602C193.201 37.7836 219.522 37.6097 243.562 28.868C264.588 21.2226 287.432 20.1062 309.103 25.6651L321.654 28.8847C347.949 35.6299 375.694 33.998 401.018 24.2168C423.599 15.4946 448.163 13.2322 471.958 17.6828L521.582 26.9646V83.279H-123.582V33.4452Z" fill="url(#paint1_linear_171_1093)"/>
<path d="M-123.582 16.7613L-79.6647 25.9262C-52.2281 31.6519 -23.8691 31.2849 3.41003 24.8509C26.0858 19.5028 49.5471 18.3376 72.6411 21.4127L85.8149 23.1669C108.598 26.2006 131.686 26.132 154.451 22.963L161.944 21.9198C186.458 18.5073 211.38 19.4229 235.577 24.625C265.207 30.9952 295.86 30.9245 325.461 24.4177L326.32 24.2289C348.822 19.2825 371.971 17.9749 394.887 20.3558L409.262 21.8493C430.173 24.022 451.252 24.028 472.164 21.8673L521.582 16.7613V83.2791H-123.582V16.7613Z" fill="url(#paint2_linear_171_1093)" fill-opacity="0.8"/>
</g>
<defs>
<linearGradient id="paint0_linear_171_1093" x1="-157.431" y1="35.3343" x2="659.895" y2="35.3343" gradientUnits="userSpaceOnUse">
<stop stop-color="#F5CF31"/>
<stop offset="0.5" stop-color="#897318"/>
<stop offset="1" stop-color="#CCAC2A"/>
</linearGradient>
<linearGradient id="paint1_linear_171_1093" x1="-123.582" y1="47.0769" x2="521.582" y2="47.0769" gradientUnits="userSpaceOnUse">
<stop stop-color="#F5CF31"/>
<stop offset="0.5" stop-color="#CCAC2A"/>
<stop offset="1" stop-color="#F5CF31"/>
</linearGradient>
<linearGradient id="paint2_linear_171_1093" x1="-123.582" y1="50.0202" x2="521.582" y2="50.0202" gradientUnits="userSpaceOnUse">
<stop stop-color="#F5CF31"/>
<stop offset="0.5" stop-color="#A48A21"/>
<stop offset="1" stop-color="#FFE475"/>
</linearGradient>
</defs>
</svg>
